<svg
  width="776"
  height="214"
  viewBox="0 0 776 214"
  fill="none"
  xmlns="http://www.w3.org/2000/svg"
>
<path
    d="M127.322 58.2L82.3938 159H75.0498L30.1218 58.2H38.1858L78.9378 149.496L119.69 58.2H127.322Z"
    fill="#5CDB94"
  />
<path
    d="M242.885 123.144H178.229C178.421 129 179.909 134.232 182.693 138.84C185.477 143.352 189.221 146.856 193.925 149.352C198.725 151.848 204.101 153.096 210.053 153.096C214.949 153.096 219.461 152.232 223.589 150.504C227.813 148.68 231.317 146.04 234.101 142.584L238.277 147.336C235.013 151.272 230.885 154.296 225.893 156.408C220.997 158.52 215.669 159.576 209.909 159.576C202.421 159.576 195.749 157.944 189.893 154.68C184.037 151.416 179.429 146.904 176.069 141.144C172.805 135.384 171.173 128.808 171.173 121.416C171.173 114.12 172.709 107.592 175.781 101.832C178.949 95.976 183.269 91.416 188.741 88.152C194.213 84.888 200.357 83.256 207.173 83.256C213.989 83.256 220.085 84.888 225.461 88.152C230.933 91.32 235.205 95.784 238.277 101.544C241.445 107.304 243.029 113.832 243.029 121.128L242.885 123.144ZM207.173 89.592C201.893 89.592 197.141 90.792 192.917 93.192C188.693 95.496 185.285 98.808 182.693 103.128C180.197 107.352 178.757 112.152 178.373 117.528H235.973C235.685 112.152 234.245 107.352 231.653 103.128C229.061 98.904 225.653 95.592 221.429 93.192C217.205 90.792 212.453 89.592 207.173 89.592ZM364.807 123.144H300.151C300.343 129 301.831 134.232 304.615 138.84C307.399 143.352 311.143 146.856 315.847 149.352C320.647 151.848 326.023 153.096 331.975 153.096C336.871 153.096 341.383 152.232 345.511 150.504C349.735 148.68 353.239 146.04 356.023 142.584L360.199 147.336C356.935 151.272 352.807 154.296 347.815 156.408C342.919 158.52 337.591 159.576 331.831 159.576C324.343 159.576 317.671 157.944 311.815 154.68C305.959 151.416 301.351 146.904 297.991 141.144C294.727 135.384 293.095 128.808 293.095 121.416C293.095 114.12 294.631 107.592 297.703 101.832C300.871 95.976 305.191 91.416 310.663 88.152C316.135 84.888 322.279 83.256 329.095 83.256C335.911 83.256 342.007 84.888 347.383 88.152C352.855 91.32 357.127 95.784 360.199 101.544C363.367 107.304 364.951 113.832 364.951 121.128L364.807 123.144ZM329.095 89.592C323.815 89.592 319.063 90.792 314.839 93.192C310.615 95.496 307.207 98.808 304.615 103.128C302.119 107.352 300.679 112.152 300.295 117.528H357.895C357.607 112.152 356.167 107.352 353.575 103.128C350.983 98.904 347.575 95.592 343.351 93.192C339.127 90.792 334.375 89.592 329.095 89.592ZM430.137 100.248C432.441 94.776 436.041 90.6 440.937 87.72C445.833 84.744 451.785 83.256 458.793 83.256V90.312L457.065 90.168C448.713 90.168 442.185 92.808 437.481 98.088C432.777 103.272 430.425 110.52 430.425 119.832V159H423.225V83.832H430.137V100.248ZM555.302 154.248C553.478 155.976 551.174 157.32 548.39 158.28C545.702 159.144 542.87 159.576 539.894 159.576C533.366 159.576 528.326 157.8 524.774 154.248C521.222 150.6 519.446 145.56 519.446 139.128V90.024H505.622V83.832H519.446V67.416H526.646V83.832H550.55V90.024H526.646V138.408C526.646 143.304 527.798 147.048 530.102 149.64C532.502 152.136 536.006 153.384 540.614 153.384C545.318 153.384 549.206 151.992 552.278 149.208L555.302 154.248ZM611.381 52.152H618.581V159H611.381V52.152ZM745.264 83.832L706.672 169.224C703.792 175.848 700.432 180.552 696.592 183.336C692.848 186.12 688.384 187.512 683.2 187.512C679.744 187.512 676.48 186.936 673.408 185.784C670.432 184.632 667.888 182.952 665.776 180.744L669.376 175.272C673.216 179.208 677.872 181.176 683.344 181.176C686.992 181.176 690.112 180.168 692.704 178.152C695.296 176.136 697.696 172.68 699.904 167.784L703.936 158.712L670.096 83.832H677.728L707.824 151.08L737.92 83.832H745.264Z"
    fill="#1C4762"
  />
</svg>
