<svg width="442" height="454" viewBox="0 0 442 454" fill="none" xmlns="http://www.w3.org/2000/svg">
<path d="M125 249C193.576 249 249.167 193.409 249.167 124.833C249.167 56.2575 193.576 0.665985 125 0.665985C56.4245 0.665985 0.833008 56.2575 0.833008 124.833C0.833008 193.409 56.4245 249 125 249Z" fill="#307572"/>
<path d="M314 362C384.692 362 442 304.692 442 234C442 163.308 384.692 106 314 106C243.308 106 186 163.308 186 234C186 304.692 243.308 362 314 362Z" fill="#37C470"/>
<path d="M116 454C179.789 454 231.5 402.289 231.5 338.5C231.5 274.711 179.789 223 116 223C52.2111 223 0.5 274.711 0.5 338.5C0.5 402.289 52.2111 454 116 454Z" fill="#5CDB94"/>
<path fill-rule="evenodd" clip-rule="evenodd" d="M94.143 332.265C55.871 349.043 44.39 357.987 39.851 362.003C32.857 368.191 28.99 391.259 24.864 410.846H111.454H198.042C193.918 391.259 190.049 368.191 183.056 362.003C178.52 357.986 167.458 349.273 129.185 332.491L94.143 332.265Z" fill="#FFDECC"/>
<path fill-rule="evenodd" clip-rule="evenodd" d="M94.142 332.265C55.871 349.043 44.39 357.987 39.851 362.003C32.857 368.191 28.99 391.259 24.864 410.846H111.454H198.042C193.918 391.259 190.049 368.191 183.056 362.003C178.52 357.986 167.458 349.273 129.185 332.491L94.142 332.265Z" fill="#5CDB94"/>
<path fill-rule="evenodd" clip-rule="evenodd" d="M92.871 298.815V327.219V341.24C103.091 353.323 119.814 353.759 130.036 341.24V327.22V298.816C130.036 275.908 92.871 275.908 92.871 298.815Z" fill="#F6D1AF"/>
<path fill-rule="evenodd" clip-rule="evenodd" d="M72.701 272.147C75.973 271.066 80.139 274.783 82.002 280.443C83.867 286.103 82.725 291.566 79.45 292.644C76.178 293.72 72.012 290.007 70.15 284.345C68.283 278.686 69.428 273.225 72.701 272.147Z" fill="#F6D1AF"/>
<path fill-rule="evenodd" clip-rule="evenodd" d="M150.043 272.147C146.768 271.066 142.602 274.783 140.738 280.443C138.874 286.103 140.019 291.566 143.29 292.644C146.565 293.72 150.73 290.007 152.594 284.345C154.457 278.686 153.312 273.225 150.043 272.147Z" fill="#F6D1AF"/>
<path opacity="0.2" d="M92.871 319.359V320.7C92.871 320.7 102.365 331.969 111.42 332.376C120.475 332.782 130.036 321.467 130.036 321.467V319.407" fill="black"/>
<path fill-rule="evenodd" clip-rule="evenodd" d="M111.484 222.65C54.313 222.65 76.2251 300.962 79.9601 306.962C84.0771 313.578 102.249 328.162 111.484 328.162C120.721 328.162 138.89 313.578 143.01 306.962C146.746 300.963 168.657 222.65 111.484 222.65Z" fill="#F6D1AF"/>
<path d="M137.131 224.48C117.821 209.285 88.007 218.344 79.005 231.006C67.738 246.85 71.723 270.907 74.391 288.985C74.389 288.957 74.39 288.932 74.389 288.906C74.419 289.088 74.456 289.273 74.506 289.467C74.544 289.614 74.864 290.031 74.927 290.145C75.021 290.316 75.721 290.131 75.952 290.018C76.038 289.98 76.075 289.869 76.08 289.776C76.187 288.181 76.09 285.019 76.087 284.984C75.875 282.498 75.334 280.101 74.971 277.67C76.778 266.274 82.125 263.879 84.929 250.133C85.522 249.215 86.157 248.324 86.823 247.457C87.589 246.46 88.382 245.5 89.306 244.647C89.793 244.351 90.261 244.03 90.714 243.677C101.105 239.871 111.818 244.438 121.629 248.441C125.379 249.972 125.934 243.312 130.069 242.99C131.837 242.852 135.49 248.842 136.977 248.666C151.702 246.929 145.542 269.251 147.826 279.565C147.513 281.355 147.176 283.145 147.019 284.984C147.015 285.019 146.919 288.181 147.026 289.776C147.031 289.869 147.068 289.98 147.153 290.018C147.384 290.131 148.085 290.316 148.179 290.145C148.241 290.032 148.562 289.615 148.6 289.467C148.776 288.779 148.813 288.198 148.845 287.508C148.966 286.607 149.124 285.64 149.242 284.668C152.223 273.508 157.699 229.272 137.131 224.48ZM107.864 239.412C107.544 239.311 107.222 239.219 106.901 239.125C107.378 239.241 107.857 239.365 108.336 239.499C108.179 239.468 108.021 239.44 107.864 239.412Z" fill="#343434"/>
<path opacity="0.1" fill-rule="evenodd" clip-rule="evenodd" d="M107.963 366.047H114.942L114.976 366.274H107.931L107.963 366.047Z" fill="black"/>
<path d="M122.516 229.767C122.516 229.767 105.874 218.177 91.015 224.417C76.155 230.658 63.079 233.035 59.811 228.875C59.811 228.875 50.597 248.191 67.834 258.297C85.07 268.401 104.685 260.376 110.332 254.135C115.978 247.894 125.191 237.79 130.244 239.87C135.295 241.951 122.516 229.767 122.516 229.767Z" fill="#343434"/>
<path fill-rule="evenodd" clip-rule="evenodd" d="M285.585 228.525C242.657 247.343 229.78 257.375 224.689 261.88C216.844 268.821 212.506 294.696 207.879 316.663H305H402.119C397.494 294.696 393.154 268.821 385.31 261.88C380.222 257.374 367.816 247.601 324.886 228.78L285.585 228.525Z" fill="#FFDECC"/>
<path fill-rule="evenodd" clip-rule="evenodd" d="M285.584 228.525C242.657 247.343 229.78 257.375 224.689 261.88C216.844 268.821 212.506 294.696 207.879 316.663H305H402.119C397.494 294.696 393.154 268.821 385.31 261.88C380.222 257.374 367.816 247.601 324.886 228.78L285.584 228.525Z" fill="#37C470"/>
<path fill-rule="evenodd" clip-rule="evenodd" d="M284.159 191.01V222.867V238.594C295.622 252.149 314.38 252.635 325.845 238.594V222.867V191.01C325.845 165.316 284.159 165.316 284.159 191.01Z" fill="#F6C89D"/>
<path fill-rule="evenodd" clip-rule="evenodd" d="M261.536 161.096C265.206 159.885 269.878 164.053 271.968 170.402C274.06 176.751 272.779 182.878 269.106 184.087C265.436 185.296 260.764 181.132 258.675 174.779C256.581 168.43 257.864 162.305 261.536 161.096Z" fill="#F6C8AC"/>
<path fill-rule="evenodd" clip-rule="evenodd" d="M348.284 161.096C344.61 159.885 339.938 164.053 337.848 170.402C335.756 176.751 337.041 182.878 340.709 184.087C344.383 185.296 349.055 181.132 351.145 174.779C353.235 168.43 351.952 162.305 348.284 161.096Z" fill="#F6C8AC"/>
<path fill-rule="evenodd" clip-rule="evenodd" d="M305.11 248.943C305.11 248.943 276.022 255.884 276.022 257.646C276.022 259.406 287.09 316.664 287.09 316.664H326.58L331.107 257.898L305.11 248.943Z" fill="#343434"/>
<path fill-rule="evenodd" clip-rule="evenodd" d="M284.159 229.15V238.594L293.214 316.664H277.644L260.517 281.893L276.866 270.992L256.886 261.652L275.259 233.141L284.159 229.15Z" fill="#307572"/>
<path fill-rule="evenodd" clip-rule="evenodd" d="M325.845 229.199V238.594L316.702 316.664H332.271L349.397 281.893L333.05 270.992L353.028 261.652L336.7 234.02L325.845 229.199Z" fill="#307572"/>
<path fill-rule="evenodd" clip-rule="evenodd" d="M296.038 258.596L301.087 266.418C303.694 266.418 306.306 266.418 308.915 266.418L313.966 258.596L305.111 248.944L296.038 258.596Z" fill="#1D4762"/>
<path fill-rule="evenodd" clip-rule="evenodd" d="M301.087 266.418L293.899 316.664H316.104L308.915 266.418H301.087Z" fill="#1D4762"/>
<path fill-rule="evenodd" clip-rule="evenodd" d="M284.159 222.867L282.337 229.957L287.437 266.867L305.111 248.943L284.159 222.867Z" fill="#343434"/>
<path opacity="0.2" d="M284.159 214.053V215.557C284.159 215.557 294.807 228.196 304.964 228.651C315.12 229.108 325.845 216.415 325.845 216.415V214.104" fill="black"/>
<path fill-rule="evenodd" clip-rule="evenodd" d="M305.036 105.58C240.911 105.58 265.489 193.416 269.678 200.146C274.296 207.566 294.678 223.923 305.036 223.923C315.397 223.923 335.776 207.566 340.397 200.146C344.587 193.416 369.163 105.58 305.036 105.58Z" fill="#F6C89D"/>
<path fill-rule="evenodd" clip-rule="evenodd" d="M325.845 222.867L327.283 229.84L322.492 267.236L305.111 248.943L325.845 222.867Z" fill="#343434"/>
<path opacity="0.05" d="M284.159 222.867L305.11 248.943L325.845 222.867V222.246L305.11 248.205L284.159 222.246V222.867Z" fill="black"/>
<path opacity="0.1" fill-rule="evenodd" clip-rule="evenodd" d="M301.087 266.418H308.915L308.952 266.674H301.05L301.087 266.418Z" fill="black"/>
<path d="M346.739 170.586C346.415 171.785 346.082 172.849 346.082 172.849C346.082 172.849 340.331 192.422 335.417 198.486C325.899 210.225 313.481 217.495 305.017 217.544C296.7 217.593 284.443 210.987 274.824 199.51C271.017 194.969 264.032 174.521 263.916 172.85C263.842 171.808 263.593 170.765 263.368 169.726C262.082 169.687 262.042 178.408 262.042 178.408C263.982 188.562 265.352 195.254 269.338 200.827C275.707 209.727 293.686 223.801 304.602 223.801C315.524 223.801 333.498 209.73 339.866 200.827C343.884 195.207 344.983 187.729 347.196 177.181C347.194 177.18 347.737 170.668 346.739 170.586Z" fill="#605343"/>
<path fill-rule="evenodd" clip-rule="evenodd" d="M324.7 196.83C323.221 193.709 311.258 189.485 309.108 188.694C306.956 187.902 305.432 190.66 305.432 190.66C305.432 190.66 303.907 187.902 301.755 188.694C299.604 189.485 287.641 193.709 286.16 196.83C284.683 199.952 283.964 202.114 283.964 204.254C283.964 206.395 283.964 213.998 283.964 213.998C283.964 213.998 286.083 214.134 287.304 213.208C288.528 212.285 289.918 209.66 289.918 206.393C289.918 203.127 292.32 200.5 295.234 199.907C298.312 199.283 305.431 198.095 305.431 196.16C305.431 198.095 313.042 199.436 315.626 199.907C318.552 200.441 320.944 203.128 320.944 206.393C320.944 209.661 322.334 212.286 323.555 213.208C324.778 214.134 326.895 213.998 326.895 213.998C326.895 213.998 326.895 206.394 326.895 204.254C326.897 202.114 326.179 199.952 324.7 196.83Z" fill="#605343"/>
<path fill-rule="evenodd" clip-rule="evenodd" d="M325.403 183.846C325.76 183.836 326.135 183.815 326.518 183.782C336.951 182.911 339.52 178.221 340.69 172.303C341.982 165.799 342.064 163.537 343.745 162.94C344.973 162.498 345.274 161.044 345.239 159.348C345.194 157.66 345.14 157.477 343.106 156.772C341.496 156.21 332.589 155.403 325.908 155.823L325.88 157.574C331.144 157.288 336.222 157.921 337.692 158.874C341.042 161.042 340.064 171.509 337.241 176.694C335.283 180.294 330.099 182.124 325.429 182.202L325.403 183.846ZM305.91 159.244C303.608 159.299 294.186 156.582 287.485 156.004C287.008 155.959 286.52 155.924 286.016 155.897L285.989 157.651C291.436 157.901 297.077 159.135 299.008 162.043C302.179 166.815 296.483 178.48 291.331 181.077C289.767 181.866 287.703 182.274 285.535 182.296L285.505 183.946C294.525 183.96 297.859 177.456 298.971 175.286C301.068 171.202 300.634 165.571 305.797 165.561C310.953 165.547 310.278 171.075 312.121 175.155C313.115 177.356 316.043 184.112 325.403 183.846L325.427 182.201C323.119 182.236 320.923 181.84 319.315 181.012C314.324 178.438 309.331 166.801 312.797 162.016C314.883 159.127 320.481 157.865 325.879 157.574L325.907 155.823C325.494 155.846 325.087 155.876 324.691 155.914C318.655 156.463 311.336 159.102 305.91 159.244ZM286.017 155.896C279.401 155.544 270.636 156.378 269.017 156.933C266.937 157.654 266.872 157.837 266.725 159.531C266.583 161.22 266.803 162.677 267.998 163.111C269.64 163.702 269.585 165.966 270.485 172.465C271.294 178.379 273.573 183.051 283.959 183.877C284.489 183.924 285.005 183.939 285.505 183.945L285.535 182.295C280.764 182.334 275.456 180.527 273.669 176.839C271.162 171.663 270.812 161.205 274.306 159.014C275.814 158.069 280.816 157.415 285.99 157.651L286.017 155.896Z" fill="#1D4762"/>
<path d="M275.009 102.078C297.643 82.59 341.968 107.473 352.314 121.675C348.139 135.951 350.17 154.154 347.105 174.43C347.106 174.399 347.105 174.371 347.107 174.342C347.071 174.545 347.029 174.753 346.972 174.971C346.929 175.136 346.56 175.604 346.488 175.731C346.38 175.922 345.576 175.715 345.309 175.588C345.212 175.545 345.167 175.42 345.163 175.317C345.04 173.528 345.151 169.981 345.155 169.942C345.397 167.153 344.991 164.317 345.41 161.59C343.333 148.807 345.011 148.272 337.854 135.506C337.25 134.431 333.42 130.067 332.902 129.673C320.962 125.403 316.799 132.517 305.528 137.007C301.217 138.724 294.727 138.84 289.958 138.84C282.531 138.84 275.333 130.879 275.184 129.206C266.255 142.673 265.341 152.295 262.72 163.863C263.077 165.871 263.466 167.879 263.644 169.941C263.65 169.98 263.76 173.527 263.638 175.316C263.632 175.42 263.588 175.545 263.492 175.587C263.226 175.714 262.422 175.921 262.314 175.73C262.242 175.603 261.871 175.135 261.828 174.97C261.625 174.198 261.586 173.547 261.545 172.773C261.41 171.761 261.228 170.677 261.09 169.587C257.665 157.069 251.374 107.453 275.009 102.078ZM308.638 118.826C309.009 118.714 309.376 118.609 309.745 118.504C309.196 118.635 308.647 118.774 308.098 118.924C308.278 118.889 308.458 118.858 308.638 118.826Z" fill="#605343"/>
<path fill-rule="evenodd" clip-rule="evenodd" d="M149.101 141.184C148.743 141.745 113.547 142.307 113.157 142.864C102.105 158.63 78.222 165.538 59.231 169.786C40.334 174.011 39.604 198.016 39.573 214.005H223.809C223.781 198.017 223.428 174.099 204.147 169.786C184.867 165.475 159.586 157.668 149.101 141.184Z" fill="#307572"/>
<path d="M133.063 167.301H129.279V214.004H133.063V167.301Z" fill="white"/>
<path opacity="0.05" fill-rule="evenodd" clip-rule="evenodd" d="M113.232 142.826L131.272 167.15L150.148 142.734L150.128 142.219L131.272 166.463L113.232 142.219V142.826Z" fill="black"/>
<path fill-rule="evenodd" clip-rule="evenodd" d="M114.52 108.193V138.472V153.415C123.577 172.335 139.836 172.827 150.673 153.415V138.472V108.193C150.673 83.775 114.52 83.775 114.52 108.193Z" fill="#E48868"/>
<path d="M146.416 15.949C128.697 10.586 109.213 12.494 93.165 23.196C79.887 32.052 68.101 43.518 58.41 56.579C55.423 60.603 32.754 94.17 36.731 98.312C60.723 123.31 93.146 138.269 126.472 143.235C157.246 148.518 189.118 142.742 219.586 138.392C216.518 100.744 202.515 61.544 176.64 34.529C168.162 25.672 157.645 19.353 146.416 15.949Z" fill="#343434"/>
<path d="M114.52 108.564V144.418C114.52 144.418 132.683 175.117 149.364 145.133L147.907 108.565H114.52V108.564Z" fill="#E48868"/>
<path d="M121.834 23.564C90.914 27.623 85.966 63.352 93.398 91.589C98.941 112.653 111.559 133.933 131.406 133.421C151.244 132.909 163.203 105.79 166.752 89.15C172.466 62.383 171.405 17.066 121.834 23.564Z" fill="#E48868"/>
<path d="M97.086 83.779C97.086 83.779 95.887 71.939 86.341 75.892C76.792 79.84 88.442 106.51 99.074 103.447C109.7 100.385 97.086 83.779 97.086 83.779Z" fill="#E48868"/>
<path d="M160.602 83.184C160.602 83.184 160.945 71.292 170.752 74.543C180.557 77.795 170.856 105.238 160.031 102.946C149.209 100.65 160.602 83.184 160.602 83.184Z" fill="#E48868"/>
<path d="M163.832 32.408C161.381 31.324 158.752 30.888 156.072 30.779C155.377 28.814 154.217 27.249 152.412 26.268C141.622 20.417 116.005 21.312 104.772 26.268C93.5389 31.224 80.494 51.892 77.543 63.812C74.404 76.484 77.548 89.771 80.683 102.449C81.586 106.094 82.788 110.146 86.083 111.945C98.122 118.511 118.202 98.709 125.452 91.225C136.654 79.665 145.175 65.482 149.837 50.065C145.855 63.238 149.629 112.683 171.431 111.793C173.692 111.703 175.062 109.337 176.005 107.282C179.493 99.642 183.05 91.746 183.327 83.353C183.609 74.955 171.509 35.816 163.832 32.408Z" fill="#343434"/>
<path d="M131.537 134.881C126.855 134.881 122.174 133.693 118.098 131.292C117.399 130.88 117.17 129.98 117.577 129.279C117.988 128.58 118.889 128.343 119.594 128.759C127.178 133.232 137.577 132.891 144.867 127.935C145.536 127.476 146.444 127.652 146.912 128.32C147.362 128.99 147.191 129.904 146.519 130.359C142.109 133.365 136.819 134.881 131.537 134.881Z" fill="#BA745D"/>
<path fill-rule="evenodd" clip-rule="evenodd" d="M113.232 142.826L100.058 154.869L116.812 180.867L131.272 167.15L113.232 142.826Z" fill="white"/>
<path fill-rule="evenodd" clip-rule="evenodd" d="M150.148 142.734L163.322 155.289L145.729 180.867L131.272 167.15L150.148 142.734Z" fill="white"/>
</svg>
