<?xml version="1.0" encoding="iso-8859-1"?>
<!-- Generator: Adobe Illustrator 19.0.0, SVG Export Plug-In . SVG Version: 6.00 Build 0)  -->
<svg version="1.1" id="Capa_1" xmlns="http://www.w3.org/2000/svg" xmlns:xlink="http://www.w3.org/1999/xlink" x="0px" y="0px"
	 viewBox="0 0 512 512" style="enable-background:new 0 0 512 512;" xml:space="preserve">
<g>
	<g>
		<path d="M504.116,136.466c-4.855-2.618-10.756-2.357-15.364,0.675l-0.447,0.295c-22.445,14.729-49.796,20.501-77.012,16.248
			c-9.894-1.546-20.117-2.329-30.388-2.329c-6.735,0-13.625,0.695-20.48,2.067c-16.605,3.323-32.763,10.87-46.723,21.822
			L256,220.514l-57.702-45.27c-13.96-10.952-30.117-18.499-46.724-21.822c-6.854-1.372-13.744-2.067-20.479-2.067
			c-10.271,0-20.494,0.783-30.388,2.329c-27.214,4.249-54.565-1.518-76.993-16.236l-0.466-0.307
			c-4.607-3.032-10.509-3.292-15.364-0.675C3.027,139.083,0,144.153,0,149.67v129.681c0,39.077,37.071,72.892,92.247,84.145
			c22.046,4.497,45.08,2.526,66.618-5.696c3.191-1.219,6.492-2.239,9.811-3.034c17.32-4.147,35.79-0.299,50.682,10.564
			c0.02,0.014,0.044,0.031,0.069,0.05c10.941,7.967,23.757,11.949,36.573,11.949c12.832,0,25.664-3.993,36.614-11.979
			c15.313-11.169,34.385-14.879,52.332-10.177c2.761,0.723,5.516,1.606,8.188,2.627c21.536,8.223,44.572,10.195,66.617,5.696
			C474.929,352.243,512,318.428,512,279.351V149.67C512,144.153,508.973,139.083,504.116,136.466z M482.002,279.351H482
			c0,24.042-28.063,46.556-68.242,54.75c-16.458,3.354-33.719,1.856-49.925-4.329c-3.683-1.406-7.48-2.624-11.285-3.62
			c-26.696-6.996-54.985-1.543-77.611,14.959c-11.326,8.262-26.547,8.262-37.873,0c-0.02-0.014-0.045-0.032-0.07-0.051
			c-22.001-16.028-49.449-21.666-75.307-15.469c-4.573,1.095-9.122,2.502-13.521,4.181c-16.206,6.188-33.471,7.684-49.925,4.329
			C58.062,325.906,30,303.393,30,279.351v-104.8c23.466,9.7,49.475,12.813,75.338,8.773c8.366-1.307,17.032-1.97,25.757-1.97
			c4.763,0,9.673,0.499,14.592,1.483c12.022,2.406,23.812,7.942,34.094,16.01l66.961,52.533c5.436,4.264,13.082,4.264,18.518,0
			l66.961-52.533c10.282-8.067,22.071-13.604,34.093-16.01c4.92-0.984,9.83-1.483,14.593-1.483c8.725,0,17.391,0.663,25.757,1.97
			c25.86,4.04,51.865,0.927,75.338-8.775V279.351z"/>
	</g>
</g>
<g>
	<g>
		<path d="M207.444,252.627c-1.266-1.12-31.444-27.431-69.683-27.431c-38.239,0-68.417,26.311-69.683,27.431
			c-3.218,2.848-5.061,6.938-5.061,11.234c0,4.296,1.843,8.387,5.061,11.234c1.266,1.12,31.444,27.431,69.683,27.431
			c38.239,0,68.417-26.311,69.683-27.431c3.218-2.848,5.061-6.938,5.061-11.234S210.662,255.475,207.444,252.627z M137.762,272.526
			c-12.241,0-23.692-4.153-32.521-8.664c8.831-4.515,20.28-8.666,32.521-8.666c12.241,0,23.688,4.151,32.52,8.665
			C161.45,268.375,150.002,272.526,137.762,272.526z"/>
	</g>
</g>
<g>
	<g>
		<path d="M443.922,252.627c-1.266-1.12-31.444-27.431-69.683-27.431c-38.239,0-68.418,26.311-69.683,27.431
			c-3.218,2.848-5.061,6.938-5.061,11.234c0,4.296,1.843,8.387,5.061,11.234c1.266,1.12,31.444,27.431,69.683,27.431
			s68.417-26.311,69.683-27.431c3.218-2.848,5.061-6.938,5.061-11.234S447.14,255.474,443.922,252.627z M374.238,272.526
			c-12.241,0-23.692-4.153-32.521-8.664c8.831-4.515,20.28-8.666,32.521-8.666c12.241,0,23.688,4.151,32.52,8.665
			C397.927,268.375,386.479,272.526,374.238,272.526z"/>
	</g>
</g>
<g>
</g>
<g>
</g>
<g>
</g>
<g>
</g>
<g>
</g>
<g>
</g>
<g>
</g>
<g>
</g>
<g>
</g>
<g>
</g>
<g>
</g>
<g>
</g>
<g>
</g>
<g>
</g>
<g>
</g>
</svg>
