<svg width="1084" height="565" viewBox="0 0 1084 565" fill="none" xmlns="http://www.w3.org/2000/svg">
<g clip-path="url(#clip0)">
<path d="M704.723 329.59C704.723 329.59 721.26 326.88 738.303 345.736C749.866 358.53 749.245 382.635 740.692 395.69C714.19 436.142 784.521 445.218 765.179 482.245C743.369 523.998 660.175 539.01 644.286 544.109C611.456 554.645 562.47 592.06 502.984 527.784C475.51 498.098 482.677 395.69 581.225 413.845C598.217 416.975 637.367 399.803 629.006 376.199C605.091 308.692 673.19 286.566 704.723 329.59Z" fill="#20120C"/>
<path d="M713.171 380.755C713.171 380.755 711.165 348.693 684.711 345.875C664.662 343.739 657.709 366.486 657.471 391.763C657.231 417.043 664.882 433.556 682.022 429.623C700.087 425.477 710.793 416.911 714.892 403.329C714.892 403.329 728.829 401.838 727.551 386.843C726.137 370.278 713.171 380.755 713.171 380.755Z" fill="#E5AF9C"/>
<path d="M679.396 454.299C679.396 454.299 687.498 444.996 685.907 426.532L713.661 399.802C713.661 399.802 713.436 444.711 727.254 453.297C727.254 453.297 726.514 474.566 709.116 475.761C691.716 476.957 681.074 467.183 679.396 454.299Z" fill="#E5AF9C"/>
<path d="M714.704 406.262C717.215 406.262 719.25 404.226 719.25 401.714C719.25 399.202 717.215 397.166 714.704 397.166C712.193 397.166 710.158 399.202 710.158 401.714C710.158 404.226 712.193 406.262 714.704 406.262Z" fill="#37C470"/>
<path d="M674.74 380.894C674.673 380.389 672.094 380.47 672.008 380.97C671.322 384.923 670.259 388.886 667.863 390.93C664.49 393.808 671.111 396.596 673.811 396.295C676.094 396.042 675.304 385.215 674.74 380.894Z" fill="#D39784"/>
<path d="M686.046 428.587C686.046 428.587 698.342 423.052 702.744 418.268C707.148 413.488 703.175 429.744 701.025 432.836C696.903 438.765 692.548 443.062 684.342 444.6C684.342 444.6 686.546 437.635 686.046 428.587Z" fill="#D39784"/>
<path d="M727.254 453.297C727.254 453.297 721.796 473.129 704.724 471.432C687.654 469.734 682.605 459.499 679.397 454.299C679.397 454.299 650.887 451.23 610.817 481.297C573.715 509.136 561.68 541.713 553.177 564.52C553.177 564.52 710.505 707.523 842.878 564.52C842.878 564.519 817.739 459.854 727.254 453.297Z" fill="#37C470"/>
<path d="M663.55 383.158C665.365 383.158 666.836 381.686 666.836 379.871C666.836 378.055 665.365 376.583 663.55 376.583C661.736 376.583 660.265 378.055 660.265 379.871C660.265 381.686 661.736 383.158 663.55 383.158Z" fill="#20120C"/>
<path d="M691.718 382.9C693.532 382.9 695.003 381.429 695.003 379.614C695.003 377.799 693.532 376.328 691.718 376.328C689.904 376.328 688.434 377.799 688.434 379.614C688.434 381.429 689.904 382.9 691.718 382.9Z" fill="#20120C"/>
<path d="M694.124 365.515C691.707 365.209 689.283 365.146 686.848 365.242C685.057 365.312 683.79 367.333 684.018 368.984C684.283 370.904 685.961 371.889 687.758 371.818C689.598 371.745 691.428 371.865 693.255 372.094C697.489 372.632 698.368 366.052 694.124 365.515Z" fill="#20120C"/>
<path d="M665.622 364.263C663.768 364.149 661.886 364.311 660.068 364.691C658.368 365.046 657.128 367 657.611 368.689C658.12 370.461 659.786 371.527 661.608 371.147C661.937 371.078 662.266 371.014 662.598 370.963C662.755 370.938 662.912 370.919 663.068 370.898C663.09 370.898 663.131 370.896 663.213 370.889C663.943 370.898 664.66 370.852 665.392 370.897C667.124 371.002 668.841 369.456 668.825 367.694C668.805 365.858 667.478 364.375 665.622 364.263Z" fill="#20120C"/>
<path d="M668.337 406.816L686.676 404.951C686.676 404.951 686.912 415.554 678.127 416.354C669.624 417.127 668.337 406.816 668.337 406.816Z" fill="white"/>
<path d="M713.232 380.707L712.891 378.521L700.777 380.412C700.136 374.517 695.137 369.914 689.077 369.914C683.27 369.914 678.444 374.145 677.488 379.686C675.271 378.501 673.147 378.894 671.604 379.69C670.651 374.147 665.823 369.914 660.015 369.914C653.524 369.914 648.242 375.199 648.242 381.693C648.242 388.188 653.524 393.472 660.015 393.472C666.331 393.472 671.485 388.467 671.761 382.215C672.569 381.563 674.802 380.192 677.33 382.236C677.617 388.478 682.767 393.472 689.076 393.472C695.247 393.472 700.313 388.697 700.801 382.648L713.232 380.707ZM660.015 391.259C655.39 391.259 651.523 387.956 650.643 383.584L657.886 382.453L658.099 380.169L650.471 381.371C650.642 376.245 654.852 372.126 660.016 372.126C665.289 372.126 669.578 376.417 669.578 381.692C669.576 386.967 665.287 391.259 660.015 391.259ZM689.076 391.259C683.805 391.259 679.514 386.967 679.514 381.693C679.514 376.418 683.805 372.127 689.076 372.127C694.349 372.127 698.638 376.418 698.638 381.693C698.638 386.967 694.349 391.259 689.076 391.259Z" fill="#307572"/>
<path d="M380.118 331.119C380.118 331.119 399.834 305.344 428.844 312.426C472.056 322.97 465.255 349.251 449.564 369.585C416.721 412.14 429.831 418.906 409.286 417.163C383.898 415.011 379.966 417.23 363.265 378.972C353.62 356.88 355.828 330.942 380.118 331.119Z" fill="#20120C"/>
<path d="M389.133 376.524C389.133 376.524 388.803 346.748 421.499 342.351C443.714 339.361 450.657 360.172 451.147 388.267C451.636 416.367 443.276 434.791 424.187 430.568C404.071 426.119 392.096 416.693 387.42 401.631C387.42 401.631 371.915 400.095 373.203 383.419C374.626 364.992 389.133 376.524 389.133 376.524Z" fill="#DD806B"/>
<path d="M434.397 458.161C434.397 458.161 425.624 454.4 425.549 424.952L384.585 395.326C384.585 395.326 383.675 447.318 372.955 454.4C372.955 454.4 378.416 511.994 410.302 513.461C429.669 514.352 432.647 472.498 434.397 458.161Z" fill="#DD806B"/>
<path d="M430.027 374.507C430.027 374.507 434.568 386.979 438.299 390.201C442.029 393.424 436.103 398.698 428.664 396.832C425.734 396.095 430.027 374.507 430.027 374.507Z" fill="#CC6C5C"/>
<path d="M434.395 458.161C434.395 458.161 427.682 471.135 410.374 470.77C402.998 470.614 385.321 470.228 372.953 454.4C372.953 454.4 251.892 467.471 215.018 562.944C215.018 562.944 387.08 716.353 560.736 568.637C560.736 568.635 521.246 475.498 434.395 458.161Z" fill="#307572"/>
<path d="M444.749 378.972C446.684 378.972 448.253 377.402 448.253 375.466C448.253 373.53 446.684 371.961 444.749 371.961C442.814 371.961 441.245 373.53 441.245 375.466C441.245 377.402 442.814 378.972 444.749 378.972Z" fill="#20120C"/>
<path d="M413.877 378.972C415.812 378.972 417.38 377.402 417.38 375.466C417.38 373.53 415.812 371.961 413.877 371.961C411.942 371.961 410.373 373.53 410.373 375.466C410.373 377.402 411.942 378.972 413.877 378.972Z" fill="#20120C"/>
<path d="M407.187 361.546C409.754 361.143 412.337 361 414.934 361.027C416.846 361.047 418.261 363.161 418.07 364.928C417.85 366.982 416.088 368.086 414.171 368.066C412.207 368.044 410.26 368.231 408.321 368.534C403.823 369.237 402.681 362.251 407.187 361.546Z" fill="#20120C"/>
<path d="M444.658 360.355C445.59 360.299 446.526 360.314 447.461 360.384C448.38 362.765 448.883 365.272 449.442 367.767C449.275 367.755 449.108 367.734 448.939 367.696C448.587 367.624 448.237 367.555 447.883 367.499C447.716 367.474 447.55 367.454 447.382 367.431C447.358 367.431 447.314 367.429 447.227 367.421C446.448 367.43 445.684 367.383 444.903 367.43C443.057 367.543 441.223 365.892 441.243 364.015C441.264 362.054 442.679 360.476 444.658 360.355Z" fill="#20120C"/>
<path d="M392.923 356.234C392.923 356.234 392.923 390.924 401.165 395.984C409.409 401.043 450.966 397.474 450.966 397.474C450.966 397.474 458.302 419.736 451.166 426.884C444.031 434.032 417.928 438.593 406.937 431.171C395.945 423.748 387.048 419.608 386.827 375C386.827 375.002 384.956 358.157 392.923 356.234Z" fill="#20120C"/>
<path d="M439.449 408.707L422.199 406.921C422.199 406.921 421.746 413.761 430.012 414.555C438.009 415.323 439.449 408.707 439.449 408.707Z" fill="white"/>
<path d="M120.285 349.851C119.739 347.186 119.566 344.384 119.825 341.501C121.058 327.83 132.121 316.852 145.795 315.714C147.769 315.549 149.704 315.591 151.584 315.814C155.393 316.267 159.191 314.565 161.132 311.253C166.079 302.81 175.24 297.14 185.729 297.14C197.163 297.14 207.021 303.877 211.561 313.6C213.17 317.049 217.118 318.652 220.653 317.239C224.298 315.78 228.318 315.053 232.527 315.243C247.384 315.912 259.368 328.194 259.705 343.068C259.854 349.619 257.789 355.679 254.212 360.56C252.026 363.542 251.426 367.416 252.597 370.925C253.706 374.244 254.307 377.793 254.307 381.486C254.307 399.927 239.365 414.877 220.932 414.877C220.906 414.877 220.879 414.877 220.852 414.877C216.373 414.865 212.262 417.146 209.887 420.946C203.992 430.378 193.521 436.654 181.583 436.654C170.01 436.654 159.812 430.761 153.826 421.809C151.297 418.03 147.033 415.702 142.487 415.73C141.723 415.734 140.953 415.713 140.178 415.664C122.946 414.583 109.221 400.229 108.908 382.958C108.749 374.137 112.01 366.08 117.452 360.026C119.944 357.249 121.032 353.507 120.285 349.851Z" fill="#20120C"/>
<path d="M172.263 381.098C172.263 381.098 174.091 347.662 201.639 344.507C222.521 342.115 229.954 365.766 230.413 392.11C230.872 418.459 223.033 435.733 205.134 431.775C186.271 427.602 175.043 418.764 170.657 404.64C170.657 404.64 156.121 403.2 157.328 387.563C158.661 370.285 172.263 381.098 172.263 381.098Z" fill="#9C6639"/>
<path d="M235.296 468.651C235.296 468.651 196.245 456.454 201.059 428.586L170.46 398.727C170.46 398.727 173.18 455.234 126.917 465.991C126.917 465.991 137.737 504.657 189.783 508.265C207.916 509.525 233.655 482.094 235.296 468.651Z" fill="#9C6639"/>
<path d="M212.594 380.922C212.594 380.922 216.222 389.74 219.718 392.762C223.217 395.782 216.325 398.47 213.505 398.724C210.684 398.978 212.594 380.922 212.594 380.922Z" fill="#89532E"/>
<path d="M200.932 430.729C200.932 430.729 188.071 425.061 183.442 420.111C178.813 415.163 183.683 431.729 185.355 435.282C189.009 443.049 197.242 446.477 204.851 447.376C204.851 447.375 199.724 440.502 200.932 430.729Z" fill="#89532E"/>
<path d="M235.297 468.651C235.297 468.651 222.504 498.728 195.881 501.251C149.997 505.599 137.85 476.515 126.918 465.993C126.918 465.993 59.6712 487.471 9 565.778C9 565.778 152.596 714.687 315.429 576.176C315.429 576.176 298.767 492.8 235.297 468.651Z" fill="#5CDB94"/>
<path d="M224.414 383.392C226.228 383.392 227.699 381.92 227.699 380.104C227.699 378.289 226.228 376.817 224.414 376.817C222.599 376.817 221.128 378.289 221.128 380.104C221.128 381.92 222.599 383.392 224.414 383.392Z" fill="#20120C"/>
<path d="M196.243 383.133C198.057 383.133 199.527 381.662 199.527 379.847C199.527 378.032 198.057 376.561 196.243 376.561C194.429 376.561 192.958 378.032 192.958 379.847C192.958 381.662 194.429 383.133 196.243 383.133Z" fill="#20120C"/>
<path d="M189.982 364.634C192.407 364.393 194.833 364.394 197.263 364.557C199.052 364.676 200.265 366.731 199.993 368.375C199.678 370.287 197.971 371.226 196.176 371.106C194.338 370.984 192.507 371.053 190.675 371.236C186.426 371.657 185.727 365.055 189.982 364.634Z" fill="#20120C"/>
<path d="M222.337 363.981C224.192 363.867 226.073 364.03 227.892 364.409C229.592 364.764 230.832 366.718 230.348 368.408C229.839 370.179 228.471 371.294 226.652 370.914C226.322 370.845 223.3 370.571 222.567 370.615C220.836 370.721 219.118 369.174 219.136 367.414C219.155 365.575 220.483 364.094 222.337 363.981Z" fill="#20120C"/>
<path d="M219.627 406.761L200.035 405.065C200.035 405.065 199.783 414.705 209.168 415.432C218.25 416.133 219.627 406.761 219.627 406.761Z" fill="white"/>
<path d="M167.176 418.073C172.35 418.073 176.559 413.86 176.559 408.684C176.559 403.507 172.35 399.297 167.176 399.297V401.509C171.131 401.509 174.347 404.727 174.347 408.684C174.347 412.641 171.131 415.86 167.176 415.86C163.221 415.86 160.003 412.641 160.003 408.684C160.003 406.164 161.658 403.332 164.051 402.291L162.121 400.772C159.361 402.236 157.791 405.386 157.791 408.684C157.791 413.86 161.999 418.073 167.176 418.073Z" fill="#5CDB94"/>
<path d="M930.415 346.082C921.95 341.464 903.51 338.711 892.757 339.987C873.608 342.258 850.405 367.545 844.129 404.126C828.67 494.246 960.911 450.004 978.106 429.717C995.626 409.046 954.448 359.198 930.415 346.082Z" fill="#20120C"/>
<path d="M896.543 327.994C897.789 336.988 903.073 343.687 912.063 342.438C924.483 340.716 932.556 330.689 931.308 321.694C930.062 312.701 923.064 304.764 910.162 306.556C901.173 307.803 894.619 314.11 896.543 327.994Z" fill="#20120C"/>
<path d="M918.502 388.622C918.502 388.622 912.676 354.377 883.909 354.377C862.104 354.377 857.233 379.633 859.867 406.838C862.502 434.049 872.621 450.93 890.602 444.735C909.551 438.208 920.082 427.771 922.937 412.698C922.937 412.698 937.751 409.498 934.661 393.522C931.248 375.872 918.502 388.622 918.502 388.622Z" fill="#9C6639"/>
<path d="M890.601 471.57C890.601 471.57 898.247 460.641 894.423 440.968L921.208 409.045C921.208 409.045 926.106 457.361 941.944 465.012C941.944 465.012 932.416 502.413 913.844 505.693C895.273 508.971 893.878 485.232 890.601 471.57Z" fill="#9C6639"/>
<path d="M876.94 394.06C876.94 394.06 873.308 403.261 869.723 406.446C866.138 409.632 873.326 412.317 876.257 412.54C879.185 412.762 876.94 394.06 876.94 394.06Z" fill="#89532E"/>
<path d="M894.775 442.354C894.775 442.354 907.363 434.994 911.552 429.346C915.738 423.699 913.196 441.566 911.369 445.205C908.241 451.443 901.671 456.304 894.777 459.765C894.775 459.766 896.346 452.025 894.775 442.354Z" fill="#89532E"/>
<path d="M788.349 564.669C794.69 528.306 858.284 483.577 890.602 471.571C890.602 471.571 899.371 477.238 911.151 476.423C923.375 475.576 932.342 474.009 941.945 465.013C941.945 465.013 1030.29 478.26 1070 564.519C1070 564.519 1017.3 602.533 982.328 611.842C846.376 648.027 788.349 564.669 788.349 564.669Z" fill="#7FD79A"/>
<path d="M863.945 396.08C865.759 396.08 867.229 394.609 867.229 392.794C867.229 390.979 865.759 389.508 863.945 389.508C862.131 389.508 860.66 390.979 860.66 392.794C860.66 394.609 862.131 396.08 863.945 396.08Z" fill="#20120C"/>
<path d="M892.116 395.824C893.93 395.824 895.401 394.353 895.401 392.537C895.401 390.721 893.93 389.25 892.116 389.25C890.301 389.25 888.83 390.721 888.83 392.537C888.83 394.353 890.301 395.824 892.116 395.824Z" fill="#20120C"/>
<path d="M898.374 377.322C895.949 377.081 893.523 377.083 891.093 377.246C889.305 377.365 888.091 379.419 888.363 381.063C888.68 382.976 890.385 383.915 892.18 383.794C894.018 383.672 895.849 383.742 897.681 383.925C901.928 384.346 902.63 377.744 898.374 377.322Z" fill="#20120C"/>
<path d="M866.022 376.668C864.167 376.555 862.286 376.719 860.468 377.097C858.768 377.453 857.527 379.405 858.011 381.096C858.52 382.867 860.185 383.935 862.008 383.553C862.336 383.484 862.666 383.42 862.997 383.368C863.155 383.345 863.312 383.325 863.468 383.306C863.49 383.304 863.531 383.302 863.613 383.295C864.343 383.304 865.059 383.26 865.792 383.304C867.525 383.409 869.242 381.861 869.223 380.102C869.206 378.264 867.877 376.782 866.022 376.668Z" fill="#20120C"/>
<path d="M868.733 419.738L887.073 417.873C887.073 417.873 887.308 428.477 878.525 429.277C870.021 430.048 868.733 419.738 868.733 419.738Z" fill="white"/>
<path d="M890.601 471.571L894.775 490.17L911.151 476.421L927.865 491.507L941.945 465.011C941.944 465.014 923.156 485.555 890.601 471.571Z" fill="#307572"/>
<path d="M912.601 508.071C915.112 508.071 917.147 506.035 917.147 503.523C917.147 501.011 915.112 498.975 912.601 498.975C910.091 498.975 908.056 501.011 908.056 503.523C908.056 506.035 910.091 508.071 912.601 508.071Z" fill="#307572"/>
<path d="M912.601 537.404C915.112 537.404 917.147 535.368 917.147 532.856C917.147 530.345 915.112 528.308 912.601 528.308C910.091 528.308 908.056 530.345 908.056 532.856C908.056 535.368 910.091 537.404 912.601 537.404Z" fill="#307572"/>
<path d="M872.571 276.195C874.095 270.216 873.34 263.621 873.145 257.531C872.927 250.804 872.682 244.077 872.41 237.352C872.144 230.78 871.848 224.207 871.525 217.636C871.912 216.85 872.302 216.081 872.686 215.284C873.284 214.341 873.86 213.374 874.388 212.35C875.764 209.681 876.868 206.861 877.743 203.946C883.977 188.487 887.559 171.812 881.039 155.85C875.363 141.959 864.363 132.539 851.548 126.1C847.726 123.962 843.729 122.115 839.815 120.366C821.53 112.201 802.521 105.501 783.173 100.347C767.2 96.0925 748.818 91.8811 731.032 91.3956C728.79 91.1505 726.544 90.937 724.291 90.767C716.191 90.1571 707.784 89.3913 699.699 90.5617C682.195 93.0938 671.234 105.197 665.544 121.342C662.711 129.385 660.615 137.665 659.152 146.063C657.742 154.159 656.312 162.885 657.081 171.107C658.737 188.797 672.33 199.839 686.774 208.072C693.544 211.93 700.642 215.003 707.956 217.382C724.252 225.648 741.895 231.648 759.117 236.888C772.451 240.947 786.021 244.234 799.732 246.726C808.207 248.265 816.414 249.127 824.426 247.838C825.597 247.904 826.77 247.911 827.942 247.871C834.242 255.713 840.541 263.555 846.842 271.397C850.649 276.136 854.473 282.183 860.202 284.775C866.785 287.755 871.127 281.859 872.571 276.195Z" fill="#307572"/>
<path d="M334.878 242.157C333.557 235.202 334.888 227.702 335.542 220.737C336.267 213.046 337.023 205.358 337.813 197.673C338.585 190.161 339.391 182.652 340.225 175.147C339.837 174.22 339.444 173.31 339.062 172.371C338.444 171.249 337.851 170.098 337.32 168.889C335.932 165.732 334.868 162.426 334.072 159.024C328.024 140.872 325.103 121.516 333.705 103.691C341.191 88.1799 354.459 78.1691 369.594 71.7024C374.125 69.5234 378.836 67.6904 383.443 65.964C404.967 57.9082 427.22 51.5799 449.75 47.0471C468.35 43.306 489.706 39.7853 510.117 40.4901C512.703 40.3693 515.292 40.2825 517.884 40.2485C527.205 40.1254 536.893 39.8416 546.07 41.7567C565.941 45.899 577.646 60.5423 583.017 79.4416C585.692 88.8566 587.508 98.4898 588.59 108.216C589.629 117.59 590.651 127.686 589.187 137.053C586.035 157.203 569.682 168.887 552.551 177.293C544.521 181.233 536.173 184.252 527.626 186.458C508.372 194.771 487.734 200.394 467.634 205.175C452.071 208.879 436.293 211.684 420.408 213.564C410.589 214.726 401.128 215.131 392.039 213.087C390.694 213.08 389.35 213.003 388.009 212.876C380.236 221.411 372.463 229.949 364.691 238.485C359.993 243.644 355.184 250.3 348.437 252.866C340.689 255.813 336.131 248.751 334.878 242.157Z" fill="#37C470"/>
<path d="M510.258 330.669C508.886 326.655 509.042 322.094 508.845 317.908C508.625 313.285 508.427 308.661 508.246 304.038C508.07 299.517 507.916 294.996 507.777 290.475C507.468 289.957 507.16 289.451 506.854 288.927C506.391 288.313 505.944 287.681 505.526 287.008C504.437 285.253 503.526 283.382 502.766 281.43C497.65 271.176 494.284 259.941 497.883 248.644C501.015 238.813 508.039 231.756 516.471 226.641C518.974 224.967 521.613 223.482 524.201 222.071C536.289 215.474 548.953 209.844 561.933 205.254C572.649 201.465 585.018 197.573 597.183 196.27C598.706 195.979 600.236 195.709 601.769 195.469C607.287 194.609 613.009 193.625 618.612 193.983C630.75 194.764 638.925 202.461 643.704 213.217C646.083 218.574 647.974 224.135 649.436 229.811C650.843 235.284 652.3 241.184 652.221 246.865C652.051 259.081 643.337 267.391 633.885 273.822C629.457 276.836 624.758 279.331 619.876 281.362C609.156 287.918 597.391 292.995 585.873 297.528C576.956 301.038 567.833 304.032 558.571 306.49C552.844 308.008 547.267 309.047 541.706 308.601C540.905 308.711 540.102 308.779 539.297 308.818C535.408 314.536 531.516 320.256 527.627 325.975C525.275 329.431 522.985 333.784 519.201 335.875C514.855 338.277 511.557 334.472 510.258 330.669Z" fill="#7FD79A"/>
<path d="M290.49 270.727C290.932 266.755 289.858 262.591 289.186 258.699C288.446 254.402 287.686 250.109 286.91 245.817C286.149 241.624 285.371 237.431 284.575 233.243C284.753 232.704 284.936 232.176 285.111 231.629C285.408 230.97 285.693 230.299 285.939 229.596C286.583 227.759 287.04 225.851 287.339 223.902C289.955 213.423 290.761 202.401 285.146 192.742C280.26 184.338 272.358 179.279 263.558 176.295C260.914 175.266 258.184 174.44 255.516 173.67C243.05 170.069 230.251 167.473 217.373 165.9C206.744 164.602 194.57 163.546 183.112 164.83C181.651 164.874 180.191 164.938 178.73 165.031C173.478 165.366 168.014 165.628 162.93 167.104C151.926 170.299 145.974 179.048 143.769 189.92C142.672 195.334 142.068 200.836 141.883 206.357C141.702 211.678 141.565 217.405 142.796 222.613C145.443 233.817 155.154 239.684 165.16 243.671C169.85 245.54 174.681 246.875 179.587 247.748C190.786 251.591 202.645 253.859 214.165 255.68C223.085 257.087 232.087 257.982 241.11 258.35C246.688 258.577 252.03 258.395 257.056 256.851C257.813 256.788 258.567 256.687 259.316 256.557C264.061 261.025 268.806 265.491 273.551 269.959C276.42 272.659 279.415 276.197 283.324 277.348C287.811 278.666 290.069 274.492 290.49 270.727Z" fill="#7FD79A"/>
</g>
<defs>
<clipPath id="clip0">
<rect width="1084" height="565" fill="white"/>
</clipPath>
</defs>
</svg>
