<svg width="600" height="337" viewBox="0 0 600 337" fill="none" xmlns="http://www.w3.org/2000/svg">
<rect width="600" height="337" fill="#1D4762"/>
<path d="M128.892 103.721L99.4724 169.82H94.6634L65.2434 103.721H70.5239L97.2094 163.588L123.895 103.721H128.892Z" fill="#5CDB94"/>
<path d="M204.566 146.308H162.228C162.354 150.148 163.328 153.578 165.151 156.6C166.974 159.559 169.426 161.856 172.506 163.493C175.649 165.13 179.169 165.948 183.067 165.948C186.273 165.948 189.228 165.382 191.931 164.248C194.697 163.052 196.991 161.321 198.814 159.055L201.549 162.171C199.411 164.752 196.708 166.735 193.439 168.12C190.233 169.505 186.744 170.197 182.973 170.197C178.069 170.197 173.7 169.127 169.866 166.987C166.031 164.846 163.014 161.888 160.813 158.111C158.676 154.334 157.607 150.022 157.607 145.174C157.607 140.39 158.613 136.109 160.625 132.332C162.699 128.492 165.528 125.502 169.111 123.362C172.695 121.222 176.718 120.151 181.181 120.151C185.644 120.151 189.636 121.222 193.157 123.362C196.74 125.439 199.537 128.367 201.549 132.144C203.623 135.921 204.66 140.201 204.66 144.986L204.566 146.308ZM181.181 124.306C177.724 124.306 174.612 125.093 171.846 126.667C169.08 128.178 166.848 130.349 165.151 133.182C163.516 135.952 162.574 139.1 162.322 142.625H200.04C199.851 139.1 198.908 135.952 197.211 133.182C195.514 130.412 193.282 128.241 190.516 126.667C187.75 125.093 184.638 124.306 181.181 124.306ZM284.403 146.308H242.065C242.191 150.148 243.165 153.578 244.988 156.6C246.812 159.559 249.264 161.856 252.343 163.493C255.487 165.13 259.007 165.948 262.904 165.948C266.11 165.948 269.065 165.382 271.768 164.248C274.535 163.052 276.829 161.321 278.651 159.055L281.386 162.171C279.249 164.752 276.546 166.735 273.276 168.12C270.07 169.505 266.581 170.197 262.81 170.197C257.906 170.197 253.538 169.127 249.703 166.987C245.869 164.846 242.852 161.888 240.65 158.111C238.514 154.334 237.444 150.022 237.444 145.174C237.444 140.39 238.451 136.109 240.462 132.332C242.536 128.492 245.365 125.502 248.948 123.362C252.531 121.222 256.555 120.151 261.018 120.151C265.482 120.151 269.474 121.222 272.993 123.362C276.577 125.439 279.375 128.367 281.386 132.144C283.46 135.921 284.497 140.201 284.497 144.986L284.403 146.308ZM261.018 124.306C257.562 124.306 254.45 125.093 251.683 126.667C248.917 128.178 246.685 130.349 244.988 133.182C243.354 135.952 242.411 139.1 242.159 142.625H279.877C279.688 139.1 278.745 135.952 277.048 133.182C275.351 130.412 273.12 128.241 270.353 126.667C267.588 125.093 264.476 124.306 261.018 124.306ZM327.183 131.294C328.692 127.706 331.049 124.967 334.255 123.079C337.462 121.127 341.359 120.151 345.948 120.151V124.778L344.816 124.684C339.347 124.684 335.072 126.415 331.992 129.877C328.912 133.277 327.372 138.029 327.372 144.136V169.82H322.657V120.529H327.183V131.294ZM409.145 166.704C407.95 167.837 406.441 168.718 404.618 169.348C402.858 169.914 401.003 170.197 399.055 170.197C394.779 170.197 391.479 169.033 389.154 166.704C386.828 164.311 385.665 161.007 385.665 156.789V124.589H376.613V120.529H385.665V109.765H390.38V120.529H406.033V124.589H390.38V156.317C390.38 159.527 391.134 161.982 392.643 163.682C394.214 165.319 396.509 166.137 399.527 166.137C402.606 166.137 405.152 165.224 407.164 163.399L409.145 166.704ZM445.866 99.7554H450.581V169.82H445.866V99.7554ZM533.535 120.529L508.265 176.524C506.379 180.867 504.179 183.952 501.664 185.778C499.212 187.603 496.289 188.516 492.894 188.516C490.631 188.516 488.495 188.138 486.482 187.383C484.535 186.628 482.868 185.526 481.485 184.078L483.842 180.49C486.357 183.071 489.406 184.361 492.989 184.361C495.379 184.361 497.421 183.7 499.118 182.378C500.815 181.056 502.387 178.79 503.833 175.58L506.473 169.631L484.314 120.529H489.311L509.019 164.626L528.726 120.529H533.535Z" fill="white"/>
<path d="M112.903 224.2L105.463 241H103.711L96.2712 224.2H98.1912L104.623 238.792L111.103 224.2H112.903ZM289.364 224.2L281.924 241H280.172L272.732 224.2H274.652L281.084 238.792L287.564 224.2H289.364Z" fill="#5CDB94"/>
<path d="M115.333 228.376H117.037V241H115.333V228.376ZM116.197 225.616C115.845 225.616 115.549 225.496 115.309 225.256C115.069 225.016 114.949 224.728 114.949 224.392C114.949 224.072 115.069 223.792 115.309 223.552C115.549 223.312 115.845 223.192 116.197 223.192C116.549 223.192 116.845 223.312 117.085 223.552C117.325 223.776 117.445 224.048 117.445 224.368C117.445 224.72 117.325 225.016 117.085 225.256C116.845 225.496 116.549 225.616 116.197 225.616ZM123.41 230.848C123.81 230 124.402 229.36 125.186 228.928C125.986 228.496 126.97 228.28 128.138 228.28V229.936L127.73 229.912C126.402 229.912 125.362 230.32 124.61 231.136C123.858 231.952 123.482 233.096 123.482 234.568V241H121.778V228.376H123.41V230.848ZM138.411 240.232C138.091 240.52 137.691 240.744 137.211 240.904C136.747 241.048 136.259 241.12 135.747 241.12C134.563 241.12 133.651 240.8 133.011 240.16C132.371 239.52 132.051 238.616 132.051 237.448V229.816H129.795V228.376H132.051V225.616H133.755V228.376H137.595V229.816H133.755V237.352C133.755 238.104 133.939 238.68 134.307 239.08C134.691 239.464 135.235 239.656 135.939 239.656C136.291 239.656 136.627 239.6 136.947 239.488C137.283 239.376 137.571 239.216 137.811 239.008L138.411 240.232ZM152.889 228.376V241H151.257V238.696C150.809 239.464 150.193 240.064 149.409 240.496C148.625 240.912 147.729 241.12 146.721 241.12C145.073 241.12 143.769 240.664 142.809 239.752C141.865 238.824 141.393 237.472 141.393 235.696V228.376H143.097V235.528C143.097 236.856 143.425 237.864 144.081 238.552C144.737 239.24 145.673 239.584 146.889 239.584C148.217 239.584 149.265 239.184 150.033 238.384C150.801 237.568 151.185 236.44 151.185 235V228.376H152.889ZM162.077 228.28C163.725 228.28 164.989 228.696 165.869 229.528C166.749 230.344 167.189 231.56 167.189 233.176V241H165.557V239.032C165.173 239.688 164.605 240.2 163.853 240.568C163.117 240.936 162.237 241.12 161.213 241.12C159.805 241.12 158.685 240.784 157.853 240.112C157.021 239.44 156.605 238.552 156.605 237.448C156.605 236.376 156.989 235.512 157.757 234.856C158.541 234.2 159.781 233.872 161.477 233.872H165.485V233.104C165.485 232.016 165.181 231.192 164.573 230.632C163.965 230.056 163.077 229.768 161.909 229.768C161.109 229.768 160.341 229.904 159.605 230.176C158.869 230.432 158.237 230.792 157.709 231.256L156.941 229.984C157.581 229.44 158.349 229.024 159.245 228.736C160.141 228.432 161.085 228.28 162.077 228.28ZM161.477 239.776C162.437 239.776 163.261 239.56 163.949 239.128C164.637 238.68 165.149 238.04 165.485 237.208V235.144H161.525C159.365 235.144 158.285 235.896 158.285 237.4C158.285 238.136 158.565 238.72 159.125 239.152C159.685 239.568 160.469 239.776 161.477 239.776ZM171.817 223.192H173.521V241H171.817V223.192ZM195.536 235.216H184.976C185.072 236.528 185.576 237.592 186.488 238.408C187.4 239.208 188.552 239.608 189.944 239.608C190.728 239.608 191.448 239.472 192.104 239.2C192.76 238.912 193.328 238.496 193.808 237.952L194.768 239.056C194.208 239.728 193.504 240.24 192.656 240.592C191.824 240.944 190.904 241.12 189.896 241.12C188.6 241.12 187.448 240.848 186.44 240.304C185.448 239.744 184.672 238.976 184.112 238C183.552 237.024 183.272 235.92 183.272 234.688C183.272 233.456 183.536 232.352 184.064 231.376C184.608 230.4 185.344 229.64 186.272 229.096C187.216 228.552 188.272 228.28 189.44 228.28C190.608 228.28 191.656 228.552 192.584 229.096C193.512 229.64 194.24 230.4 194.768 231.376C195.296 232.336 195.56 233.44 195.56 234.688L195.536 235.216ZM189.44 229.744C188.224 229.744 187.2 230.136 186.368 230.92C185.552 231.688 185.088 232.696 184.976 233.944H193.928C193.816 232.696 193.344 231.688 192.512 230.92C191.696 230.136 190.672 229.744 189.44 229.744ZM209.402 228.376L203.786 241H202.034L196.442 228.376H198.218L202.946 239.128L207.722 228.376H209.402ZM222.442 235.216H211.882C211.978 236.528 212.482 237.592 213.394 238.408C214.306 239.208 215.458 239.608 216.85 239.608C217.634 239.608 218.354 239.472 219.01 239.2C219.666 238.912 220.234 238.496 220.714 237.952L221.674 239.056C221.114 239.728 220.41 240.24 219.562 240.592C218.73 240.944 217.81 241.12 216.802 241.12C215.506 241.12 214.354 240.848 213.346 240.304C212.354 239.744 211.578 238.976 211.018 238C210.458 237.024 210.178 235.92 210.178 234.688C210.178 233.456 210.442 232.352 210.97 231.376C211.514 230.4 212.25 229.64 213.178 229.096C214.122 228.552 215.178 228.28 216.346 228.28C217.514 228.28 218.562 228.552 219.49 229.096C220.418 229.64 221.146 230.4 221.674 231.376C222.202 232.336 222.466 233.44 222.466 234.688L222.442 235.216ZM216.346 229.744C215.13 229.744 214.106 230.136 213.274 230.92C212.458 231.688 211.994 232.696 211.882 233.944H220.834C220.722 232.696 220.25 231.688 219.418 230.92C218.602 230.136 217.578 229.744 216.346 229.744ZM232.367 228.28C233.951 228.28 235.207 228.744 236.135 229.672C237.079 230.584 237.551 231.92 237.551 233.68V241H235.847V233.848C235.847 232.536 235.519 231.536 234.863 230.848C234.207 230.16 233.271 229.816 232.055 229.816C230.695 229.816 229.615 230.224 228.815 231.04C228.031 231.84 227.639 232.952 227.639 234.376V241H225.935V228.376H227.567V230.704C228.031 229.936 228.671 229.344 229.487 228.928C230.319 228.496 231.279 228.28 232.367 228.28ZM248.825 240.232C248.505 240.52 248.105 240.744 247.625 240.904C247.161 241.048 246.673 241.12 246.161 241.12C244.977 241.12 244.065 240.8 243.425 240.16C242.785 239.52 242.465 238.616 242.465 237.448V229.816H240.209V228.376H242.465V225.616H244.169V228.376H248.009V229.816H244.169V237.352C244.169 238.104 244.353 238.68 244.721 239.08C245.105 239.464 245.649 239.656 246.353 239.656C246.705 239.656 247.041 239.6 247.361 239.488C247.697 239.376 247.985 239.216 248.225 239.008L248.825 240.232ZM255.311 241.12C254.287 241.12 253.303 240.976 252.359 240.688C251.431 240.384 250.703 240.008 250.175 239.56L250.943 238.216C251.471 238.632 252.135 238.976 252.935 239.248C253.735 239.504 254.567 239.632 255.431 239.632C256.583 239.632 257.431 239.456 257.975 239.104C258.535 238.736 258.815 238.224 258.815 237.568C258.815 237.104 258.663 236.744 258.359 236.488C258.055 236.216 257.671 236.016 257.207 235.888C256.743 235.744 256.127 235.608 255.359 235.48C254.335 235.288 253.511 235.096 252.887 234.904C252.263 234.696 251.727 234.352 251.279 233.872C250.847 233.392 250.631 232.728 250.631 231.88C250.631 230.824 251.071 229.96 251.951 229.288C252.831 228.616 254.055 228.28 255.623 228.28C256.439 228.28 257.255 228.392 258.071 228.616C258.887 228.824 259.559 229.104 260.087 229.456L259.343 230.824C258.303 230.104 257.063 229.744 255.623 229.744C254.535 229.744 253.711 229.936 253.151 230.32C252.607 230.704 252.335 231.208 252.335 231.832C252.335 232.312 252.487 232.696 252.791 232.984C253.111 233.272 253.503 233.488 253.967 233.632C254.431 233.76 255.071 233.896 255.887 234.04C256.895 234.232 257.703 234.424 258.311 234.616C258.919 234.808 259.439 235.136 259.871 235.6C260.303 236.064 260.519 236.704 260.519 237.52C260.519 238.624 260.055 239.504 259.127 240.16C258.215 240.8 256.943 241.12 255.311 241.12ZM263.861 238.504C264.229 238.504 264.533 238.632 264.773 238.888C265.013 239.128 265.133 239.432 265.133 239.8C265.133 239.992 265.101 240.2 265.037 240.424C264.989 240.648 264.909 240.904 264.797 241.192L263.789 244.504H262.637L263.453 241.024C263.197 240.944 262.989 240.8 262.829 240.592C262.669 240.368 262.589 240.104 262.589 239.8C262.589 239.432 262.709 239.128 262.949 238.888C263.189 238.632 263.493 238.504 263.861 238.504ZM291.794 228.376H293.498V241H291.794V228.376ZM292.658 225.616C292.306 225.616 292.01 225.496 291.77 225.256C291.53 225.016 291.41 224.728 291.41 224.392C291.41 224.072 291.53 223.792 291.77 223.552C292.01 223.312 292.306 223.192 292.658 223.192C293.01 223.192 293.306 223.312 293.546 223.552C293.786 223.776 293.906 224.048 293.906 224.368C293.906 224.72 293.786 225.016 293.546 225.256C293.306 225.496 293.01 225.616 292.658 225.616ZM299.871 230.848C300.271 230 300.863 229.36 301.647 228.928C302.447 228.496 303.431 228.28 304.599 228.28V229.936L304.191 229.912C302.863 229.912 301.823 230.32 301.071 231.136C300.319 231.952 299.943 233.096 299.943 234.568V241H298.239V228.376H299.871V230.848ZM314.872 240.232C314.552 240.52 314.152 240.744 313.672 240.904C313.208 241.048 312.72 241.12 312.208 241.12C311.024 241.12 310.112 240.8 309.472 240.16C308.832 239.52 308.512 238.616 308.512 237.448V229.816H306.256V228.376H308.512V225.616H310.216V228.376H314.056V229.816H310.216V237.352C310.216 238.104 310.4 238.68 310.768 239.08C311.152 239.464 311.696 239.656 312.4 239.656C312.752 239.656 313.088 239.6 313.408 239.488C313.744 239.376 314.032 239.216 314.272 239.008L314.872 240.232ZM329.35 228.376V241H327.718V238.696C327.27 239.464 326.654 240.064 325.87 240.496C325.086 240.912 324.19 241.12 323.182 241.12C321.534 241.12 320.23 240.664 319.27 239.752C318.326 238.824 317.854 237.472 317.854 235.696V228.376H319.558V235.528C319.558 236.856 319.886 237.864 320.542 238.552C321.198 239.24 322.134 239.584 323.35 239.584C324.678 239.584 325.726 239.184 326.494 238.384C327.262 237.568 327.646 236.44 327.646 235V228.376H329.35ZM338.538 228.28C340.186 228.28 341.45 228.696 342.33 229.528C343.21 230.344 343.65 231.56 343.65 233.176V241H342.018V239.032C341.634 239.688 341.066 240.2 340.314 240.568C339.578 240.936 338.698 241.12 337.674 241.12C336.266 241.12 335.146 240.784 334.314 240.112C333.482 239.44 333.066 238.552 333.066 237.448C333.066 236.376 333.45 235.512 334.218 234.856C335.002 234.2 336.242 233.872 337.938 233.872H341.946V233.104C341.946 232.016 341.642 231.192 341.034 230.632C340.426 230.056 339.538 229.768 338.37 229.768C337.57 229.768 336.802 229.904 336.066 230.176C335.33 230.432 334.698 230.792 334.17 231.256L333.402 229.984C334.042 229.44 334.81 229.024 335.706 228.736C336.602 228.432 337.546 228.28 338.538 228.28ZM337.938 239.776C338.898 239.776 339.722 239.56 340.41 239.128C341.098 238.68 341.61 238.04 341.946 237.208V235.144H337.986C335.826 235.144 334.746 235.896 334.746 237.4C334.746 238.136 335.026 238.72 335.586 239.152C336.146 239.568 336.93 239.776 337.938 239.776ZM348.278 223.192H349.982V241H348.278V223.192ZM367.437 228.28C369.021 228.28 370.277 228.744 371.205 229.672C372.149 230.584 372.621 231.92 372.621 233.68V241H370.917V233.848C370.917 232.536 370.589 231.536 369.933 230.848C369.277 230.16 368.341 229.816 367.125 229.816C365.765 229.816 364.685 230.224 363.885 231.04C363.101 231.84 362.709 232.952 362.709 234.376V241H361.005V228.376H362.637V230.704C363.101 229.936 363.741 229.344 364.557 228.928C365.389 228.496 366.349 228.28 367.437 228.28ZM388.286 235.216H377.726C377.822 236.528 378.326 237.592 379.238 238.408C380.15 239.208 381.302 239.608 382.694 239.608C383.478 239.608 384.198 239.472 384.854 239.2C385.51 238.912 386.078 238.496 386.558 237.952L387.518 239.056C386.958 239.728 386.254 240.24 385.406 240.592C384.574 240.944 383.654 241.12 382.646 241.12C381.35 241.12 380.198 240.848 379.19 240.304C378.198 239.744 377.422 238.976 376.862 238C376.302 237.024 376.022 235.92 376.022 234.688C376.022 233.456 376.286 232.352 376.814 231.376C377.358 230.4 378.094 229.64 379.022 229.096C379.966 228.552 381.022 228.28 382.19 228.28C383.358 228.28 384.406 228.552 385.334 229.096C386.262 229.64 386.99 230.4 387.518 231.376C388.046 232.336 388.31 233.44 388.31 234.688L388.286 235.216ZM382.19 229.744C380.974 229.744 379.95 230.136 379.118 230.92C378.302 231.688 377.838 232.696 377.726 233.944H386.678C386.566 232.696 386.094 231.688 385.262 230.92C384.446 230.136 383.422 229.744 382.19 229.744ZM398.426 240.232C398.106 240.52 397.706 240.744 397.226 240.904C396.762 241.048 396.274 241.12 395.762 241.12C394.578 241.12 393.666 240.8 393.026 240.16C392.386 239.52 392.066 238.616 392.066 237.448V229.816H389.81V228.376H392.066V225.616H393.77V228.376H397.61V229.816H393.77V237.352C393.77 238.104 393.954 238.68 394.322 239.08C394.706 239.464 395.25 239.656 395.954 239.656C396.306 239.656 396.642 239.6 396.962 239.488C397.298 239.376 397.586 239.216 397.826 239.008L398.426 240.232ZM419.822 228.376L415.046 241H413.438L409.454 230.656L405.47 241H403.862L399.11 228.376H400.742L404.702 239.104L408.758 228.376H410.222L414.254 239.104L418.262 228.376H419.822ZM427.196 241.12C425.98 241.12 424.884 240.848 423.908 240.304C422.932 239.744 422.164 238.976 421.604 238C421.044 237.024 420.764 235.92 420.764 234.688C420.764 233.456 421.044 232.352 421.604 231.376C422.164 230.4 422.932 229.64 423.908 229.096C424.884 228.552 425.98 228.28 427.196 228.28C428.412 228.28 429.508 228.552 430.484 229.096C431.46 229.64 432.22 230.4 432.764 231.376C433.324 232.352 433.604 233.456 433.604 234.688C433.604 235.92 433.324 237.024 432.764 238C432.22 238.976 431.46 239.744 430.484 240.304C429.508 240.848 428.412 241.12 427.196 241.12ZM427.196 239.608C428.092 239.608 428.892 239.408 429.596 239.008C430.316 238.592 430.876 238.008 431.276 237.256C431.676 236.504 431.876 235.648 431.876 234.688C431.876 233.728 431.676 232.872 431.276 232.12C430.876 231.368 430.316 230.792 429.596 230.392C428.892 229.976 428.092 229.768 427.196 229.768C426.3 229.768 425.492 229.976 424.772 230.392C424.068 230.792 423.508 231.368 423.092 232.12C422.692 232.872 422.492 233.728 422.492 234.688C422.492 235.648 422.692 236.504 423.092 237.256C423.508 238.008 424.068 238.592 424.772 239.008C425.492 239.408 426.3 239.608 427.196 239.608ZM438.715 230.848C439.115 230 439.707 229.36 440.491 228.928C441.291 228.496 442.275 228.28 443.443 228.28V229.936L443.035 229.912C441.707 229.912 440.667 230.32 439.915 231.136C439.163 231.952 438.787 233.096 438.787 234.568V241H437.083V228.376H438.715V230.848ZM451.208 234.664L448.232 237.4V241H446.528V223.192H448.232V235.264L455.768 228.376H457.88L452.48 233.536L458.384 241H456.296L451.208 234.664ZM460.755 228.376H462.459V241H460.755V228.376ZM461.619 225.616C461.267 225.616 460.971 225.496 460.731 225.256C460.491 225.016 460.371 224.728 460.371 224.392C460.371 224.072 460.491 223.792 460.731 223.552C460.971 223.312 461.267 223.192 461.619 223.192C461.971 223.192 462.267 223.312 462.507 223.552C462.747 223.776 462.867 224.048 462.867 224.368C462.867 224.72 462.747 225.016 462.507 225.256C462.267 225.496 461.971 225.616 461.619 225.616ZM473.632 228.28C475.216 228.28 476.472 228.744 477.4 229.672C478.344 230.584 478.816 231.92 478.816 233.68V241H477.112V233.848C477.112 232.536 476.784 231.536 476.128 230.848C475.472 230.16 474.536 229.816 473.32 229.816C471.96 229.816 470.88 230.224 470.08 231.04C469.296 231.84 468.904 232.952 468.904 234.376V241H467.2V228.376H468.832V230.704C469.296 229.936 469.936 229.344 470.752 228.928C471.584 228.496 472.544 228.28 473.632 228.28ZM495.177 228.376V239.464C495.177 241.608 494.649 243.192 493.593 244.216C492.553 245.256 490.977 245.776 488.865 245.776C487.697 245.776 486.585 245.6 485.529 245.248C484.489 244.912 483.641 244.44 482.985 243.832L483.849 242.536C484.457 243.08 485.193 243.504 486.057 243.808C486.937 244.112 487.857 244.264 488.817 244.264C490.417 244.264 491.593 243.888 492.345 243.136C493.097 242.4 493.473 241.248 493.473 239.68V238.072C492.945 238.872 492.249 239.48 491.385 239.896C490.537 240.312 489.593 240.52 488.553 240.52C487.369 240.52 486.289 240.264 485.313 239.752C484.353 239.224 483.593 238.496 483.033 237.568C482.489 236.624 482.217 235.56 482.217 234.376C482.217 233.192 482.489 232.136 483.033 231.208C483.593 230.28 484.353 229.56 485.313 229.048C486.273 228.536 487.353 228.28 488.553 228.28C489.625 228.28 490.593 228.496 491.457 228.928C492.321 229.36 493.017 229.984 493.545 230.8V228.376H495.177ZM488.721 239.008C489.633 239.008 490.457 238.816 491.193 238.432C491.929 238.032 492.497 237.48 492.897 236.776C493.313 236.072 493.521 235.272 493.521 234.376C493.521 233.48 493.313 232.688 492.897 232C492.497 231.296 491.929 230.752 491.193 230.368C490.473 229.968 489.649 229.768 488.721 229.768C487.809 229.768 486.985 229.96 486.249 230.344C485.529 230.728 484.961 231.272 484.545 231.976C484.145 232.68 483.945 233.48 483.945 234.376C483.945 235.272 484.145 236.072 484.545 236.776C484.961 237.48 485.529 238.032 486.249 238.432C486.985 238.816 487.809 239.008 488.721 239.008ZM499.678 224.2H501.694L501.334 235.96H500.014L499.678 224.2ZM500.686 241.12C500.334 241.12 500.03 241 499.774 240.76C499.534 240.504 499.414 240.208 499.414 239.872C499.414 239.52 499.534 239.232 499.774 239.008C500.014 238.768 500.318 238.648 500.686 238.648C501.038 238.648 501.334 238.768 501.574 239.008C501.814 239.232 501.934 239.52 501.934 239.872C501.934 240.208 501.814 240.504 501.574 240.76C501.334 241 501.038 241.12 500.686 241.12Z" fill="white"/>
</svg>
