<svg height="512pt" viewBox="0 0 512 512" width="512pt" xmlns="http://www.w3.org/2000/svg"><path d="m490.667969 171.519531h-469.335938c-11.773437 0-21.332031 9.558594-21.332031 21.332031v255.148438c0 35.285156 28.714844 64 64 64h384c35.285156 0 64-28.714844 64-64v-255.148438c0-11.773437-9.558594-21.332031-21.332031-21.332031zm0 0" fill="#eceff1"/><path d="m448 64h-384c-35.347656 0-64 28.652344-64 64v64.851562h512v-64.851562c0-35.347656-28.652344-64-64-64zm0 0" fill="#2196f3"/><path d="m128 0h-21.332031c-11.777344 0-21.335938 9.558594-21.335938 21.332031v85.335938c0 11.773437 9.558594 21.332031 21.335938 21.332031h21.332031c11.777344 0 21.332031-9.558594 21.332031-21.332031v-85.335938c0-11.773437-9.554687-21.332031-21.332031-21.332031zm0 0" fill="#1976d2"/><path d="m405.332031 0h-21.332031c-11.777344 0-21.332031 9.558594-21.332031 21.332031v85.335938c0 11.773437 9.554687 21.332031 21.332031 21.332031h21.332031c11.777344 0 21.335938-9.558594 21.335938-21.332031v-85.335938c0-11.773437-9.558594-21.332031-21.335938-21.332031zm0 0" fill="#1976d2"/><g fill="#2196f3"><path d="m133.332031 234.667969h-53.332031c-8.832031 0-16 7.167969-16 16v53.332031c0 8.832031 7.167969 16 16 16h53.332031c8.832031 0 16-7.167969 16-16v-53.332031c0-8.832031-7.167969-16-16-16zm0 0"/><path d="m133.332031 362.667969h-53.332031c-8.832031 0-16 7.167969-16 16v53.332031c0 8.832031 7.167969 16 16 16h53.332031c8.832031 0 16-7.167969 16-16v-53.332031c0-8.832031-7.167969-16-16-16zm0 0"/><path d="m282.667969 234.667969h-53.335938c-8.832031 0-16 7.167969-16 16v53.332031c0 8.832031 7.167969 16 16 16h53.335938c8.832031 0 16-7.167969 16-16v-53.332031c0-8.832031-7.167969-16-16-16zm0 0"/></g><path d="m282.667969 362.667969h-53.335938c-8.832031 0-16 7.167969-16 16v53.332031c0 8.832031 7.167969 16 16 16h53.335938c8.832031 0 16-7.167969 16-16v-53.332031c0-8.832031-7.167969-16-16-16zm0 0" fill="#90caf9"/><path d="m432 234.667969h-53.332031c-8.832031 0-16 7.167969-16 16v53.332031c0 8.832031 7.167969 16 16 16h53.332031c8.832031 0 16-7.167969 16-16v-53.332031c0-8.832031-7.167969-16-16-16zm0 0" fill="#2196f3"/></svg>