<svg width="745" height="214" viewBox="0 0 745 214" fill="none" xmlns="http://www.w3.org/2000/svg">
<path d="M112.322 77.2L67.3938 178H60.0498L15.1218 77.2H23.1858L63.9378 168.496L104.69 77.2H112.322Z" fill="#5CDB94"/>
<path d="M227.885 142.144H163.229C163.421 148 164.909 153.232 167.693 157.84C170.477 162.352 174.221 165.856 178.925 168.352C183.725 170.848 189.101 172.096 195.053 172.096C199.949 172.096 204.461 171.232 208.589 169.504C212.813 167.68 216.317 165.04 219.101 161.584L223.277 166.336C220.013 170.272 215.885 173.296 210.893 175.408C205.997 177.52 200.669 178.576 194.909 178.576C187.421 178.576 180.749 176.944 174.893 173.68C169.037 170.416 164.429 165.904 161.069 160.144C157.805 154.384 156.173 147.808 156.173 140.416C156.173 133.12 157.709 126.592 160.781 120.832C163.949 114.976 168.269 110.416 173.741 107.152C179.213 103.888 185.357 102.256 192.173 102.256C198.989 102.256 205.085 103.888 210.461 107.152C215.933 110.32 220.205 114.784 223.277 120.544C226.445 126.304 228.029 132.832 228.029 140.128L227.885 142.144ZM192.173 108.592C186.893 108.592 182.141 109.792 177.917 112.192C173.693 114.496 170.285 117.808 167.693 122.128C165.197 126.352 163.757 131.152 163.373 136.528H220.973C220.685 131.152 219.245 126.352 216.653 122.128C214.061 117.904 210.653 114.592 206.429 112.192C202.205 109.792 197.453 108.592 192.173 108.592ZM349.807 142.144H285.151C285.343 148 286.831 153.232 289.615 157.84C292.399 162.352 296.143 165.856 300.847 168.352C305.647 170.848 311.023 172.096 316.975 172.096C321.871 172.096 326.383 171.232 330.511 169.504C334.735 167.68 338.239 165.04 341.023 161.584L345.199 166.336C341.935 170.272 337.807 173.296 332.815 175.408C327.919 177.52 322.591 178.576 316.831 178.576C309.343 178.576 302.671 176.944 296.815 173.68C290.959 170.416 286.351 165.904 282.991 160.144C279.727 154.384 278.095 147.808 278.095 140.416C278.095 133.12 279.631 126.592 282.703 120.832C285.871 114.976 290.191 110.416 295.663 107.152C301.135 103.888 307.279 102.256 314.095 102.256C320.911 102.256 327.007 103.888 332.383 107.152C337.855 110.32 342.127 114.784 345.199 120.544C348.367 126.304 349.951 132.832 349.951 140.128L349.807 142.144ZM314.095 108.592C308.815 108.592 304.063 109.792 299.839 112.192C295.615 114.496 292.207 117.808 289.615 122.128C287.119 126.352 285.679 131.152 285.295 136.528H342.895C342.607 131.152 341.167 126.352 338.575 122.128C335.983 117.904 332.575 114.592 328.351 112.192C324.127 109.792 319.375 108.592 314.095 108.592ZM415.137 119.248C417.441 113.776 421.041 109.6 425.937 106.72C430.833 103.744 436.785 102.256 443.793 102.256V109.312L442.065 109.168C433.713 109.168 427.185 111.808 422.481 117.088C417.777 122.272 415.425 129.52 415.425 138.832V178H408.225V102.832H415.137V119.248ZM540.302 173.248C538.478 174.976 536.174 176.32 533.39 177.28C530.702 178.144 527.87 178.576 524.894 178.576C518.366 178.576 513.326 176.8 509.774 173.248C506.222 169.6 504.446 164.56 504.446 158.128V109.024H490.622V102.832H504.446V86.416H511.646V102.832H535.55V109.024H511.646V157.408C511.646 162.304 512.798 166.048 515.102 168.64C517.502 171.136 521.006 172.384 525.614 172.384C530.318 172.384 534.206 170.992 537.278 168.208L540.302 173.248ZM596.381 71.152H603.581V178H596.381V71.152ZM730.264 102.832L691.672 188.224C688.792 194.848 685.432 199.552 681.592 202.336C677.848 205.12 673.384 206.512 668.2 206.512C664.744 206.512 661.48 205.936 658.408 204.784C655.432 203.632 652.888 201.952 650.776 199.744L654.376 194.272C658.216 198.208 662.872 200.176 668.344 200.176C671.992 200.176 675.112 199.168 677.704 197.152C680.296 195.136 682.696 191.68 684.904 186.784L688.936 177.712L655.096 102.832H662.728L692.824 170.08L722.92 102.832H730.264Z" fill="#1C4762"/>
<path d="M29.664 27.752C32 27.752 34.112 28.296 36 29.384C37.888 30.472 39.36 31.976 40.416 33.896C41.504 35.816 42.048 38.008 42.048 40.472C42.048 42.936 41.504 45.144 40.416 47.096C39.36 49.016 37.888 50.52 36 51.608C34.112 52.664 32 53.192 29.664 53.192C27.456 53.192 25.456 52.68 23.664 51.656C21.872 50.6 20.48 49.144 19.488 47.288V62.312H17.088V27.944H19.392V33.848C20.384 31.928 21.776 30.44 23.568 29.384C25.392 28.296 27.424 27.752 29.664 27.752ZM29.52 51.032C31.44 51.032 33.168 50.584 34.704 49.688C36.24 48.792 37.44 47.544 38.304 45.944C39.2 44.344 39.648 42.52 39.648 40.472C39.648 38.424 39.2 36.6 38.304 35C37.44 33.4 36.24 32.152 34.704 31.256C33.168 30.36 31.44 29.912 29.52 29.912C27.6 29.912 25.872 30.36 24.336 31.256C22.832 32.152 21.632 33.4 20.736 35C19.872 36.6 19.44 38.424 19.44 40.472C19.44 42.52 19.872 44.344 20.736 45.944C21.632 47.544 22.832 48.792 24.336 49.688C25.872 50.584 27.6 51.032 29.52 51.032ZM64.0706 53.192C61.7026 53.192 59.5586 52.648 57.6386 51.56C55.7506 50.472 54.2626 48.968 53.1746 47.048C52.0866 45.096 51.5426 42.904 51.5426 40.472C51.5426 38.04 52.0866 35.864 53.1746 33.944C54.2626 31.992 55.7506 30.472 57.6386 29.384C59.5586 28.296 61.7026 27.752 64.0706 27.752C66.4386 27.752 68.5666 28.296 70.4546 29.384C72.3746 30.472 73.8786 31.992 74.9666 33.944C76.0546 35.864 76.5986 38.04 76.5986 40.472C76.5986 42.904 76.0546 45.096 74.9666 47.048C73.8786 48.968 72.3746 50.472 70.4546 51.56C68.5666 52.648 66.4386 53.192 64.0706 53.192ZM64.0706 51.032C65.9906 51.032 67.7026 50.584 69.2066 49.688C70.7426 48.792 71.9426 47.544 72.8066 45.944C73.7026 44.344 74.1506 42.52 74.1506 40.472C74.1506 38.424 73.7026 36.6 72.8066 35C71.9426 33.4 70.7426 32.152 69.2066 31.256C67.7026 30.36 65.9906 29.912 64.0706 29.912C62.1506 29.912 60.4226 30.36 58.8866 31.256C57.3826 32.152 56.1826 33.4 55.2866 35C54.4226 36.6 53.9906 38.424 53.9906 40.472C53.9906 42.52 54.4226 44.344 55.2866 45.944C56.1826 47.544 57.3826 48.792 58.8866 49.688C60.4226 50.584 62.1506 51.032 64.0706 51.032ZM123.949 27.944L114.445 53H112.189L103.741 31.256L95.2451 53H93.0371L83.5331 27.944H85.8371L94.1891 50.312L102.733 27.944H104.797L113.293 50.264L121.741 27.944H123.949ZM154.797 41.048H133.245C133.309 43 133.805 44.744 134.733 46.28C135.661 47.784 136.909 48.952 138.477 49.784C140.077 50.616 141.869 51.032 143.853 51.032C145.485 51.032 146.989 50.744 148.365 50.168C149.773 49.56 150.941 48.68 151.869 47.528L153.261 49.112C152.173 50.424 150.797 51.432 149.133 52.136C147.501 52.84 145.725 53.192 143.805 53.192C141.309 53.192 139.085 52.648 137.133 51.56C135.181 50.472 133.645 48.968 132.525 47.048C131.437 45.128 130.893 42.936 130.893 40.472C130.893 38.04 131.405 35.864 132.429 33.944C133.485 31.992 134.925 30.472 136.749 29.384C138.573 28.296 140.621 27.752 142.893 27.752C145.165 27.752 147.197 28.296 148.989 29.384C150.813 30.44 152.237 31.928 153.261 33.848C154.317 35.768 154.845 37.944 154.845 40.376L154.797 41.048ZM142.893 29.864C141.133 29.864 139.549 30.264 138.141 31.064C136.733 31.832 135.597 32.936 134.733 34.376C133.901 35.784 133.421 37.384 133.293 39.176H152.493C152.397 37.384 151.917 35.784 151.053 34.376C150.189 32.968 149.053 31.864 147.645 31.064C146.237 30.264 144.653 29.864 142.893 29.864ZM169.373 33.416C170.141 31.592 171.341 30.2 172.973 29.24C174.605 28.248 176.589 27.752 178.925 27.752V30.104L178.349 30.056C175.565 30.056 173.389 30.936 171.821 32.696C170.253 34.424 169.469 36.84 169.469 39.944V53H167.069V27.944H169.373V33.416ZM211.272 41.048H189.72C189.784 43 190.28 44.744 191.208 46.28C192.136 47.784 193.384 48.952 194.952 49.784C196.552 50.616 198.344 51.032 200.328 51.032C201.96 51.032 203.464 50.744 204.84 50.168C206.248 49.56 207.416 48.68 208.344 47.528L209.736 49.112C208.648 50.424 207.272 51.432 205.608 52.136C203.976 52.84 202.2 53.192 200.28 53.192C197.784 53.192 195.56 52.648 193.608 51.56C191.656 50.472 190.12 48.968 189 47.048C187.912 45.128 187.368 42.936 187.368 40.472C187.368 38.04 187.88 35.864 188.904 33.944C189.96 31.992 191.4 30.472 193.224 29.384C195.048 28.296 197.096 27.752 199.368 27.752C201.64 27.752 203.672 28.296 205.464 29.384C207.288 30.44 208.712 31.928 209.736 33.848C210.792 35.768 211.32 37.944 211.32 40.376L211.272 41.048ZM199.368 29.864C197.608 29.864 196.024 30.264 194.616 31.064C193.208 31.832 192.072 32.936 191.208 34.376C190.376 35.784 189.896 37.384 189.768 39.176H208.968C208.872 37.384 208.392 35.784 207.528 34.376C206.664 32.968 205.528 31.864 204.12 31.064C202.712 30.264 201.128 29.864 199.368 29.864ZM245.816 17.384V53H243.464V47.096C242.472 49.048 241.08 50.552 239.288 51.608C237.496 52.664 235.464 53.192 233.192 53.192C230.856 53.192 228.744 52.648 226.856 51.56C224.968 50.472 223.48 48.968 222.392 47.048C221.336 45.128 220.808 42.936 220.808 40.472C220.808 38.008 221.336 35.816 222.392 33.896C223.48 31.944 224.968 30.44 226.856 29.384C228.744 28.296 230.856 27.752 233.192 27.752C235.432 27.752 237.432 28.28 239.192 29.336C240.984 30.392 242.392 31.864 243.416 33.752V17.384H245.816ZM233.336 51.032C235.256 51.032 236.968 50.584 238.472 49.688C240.008 48.792 241.208 47.544 242.072 45.944C242.968 44.344 243.416 42.52 243.416 40.472C243.416 38.424 242.968 36.6 242.072 35C241.208 33.4 240.008 32.152 238.472 31.256C236.968 30.36 235.256 29.912 233.336 29.912C231.416 29.912 229.688 30.36 228.152 31.256C226.648 32.152 225.448 33.4 224.552 35C223.688 36.6 223.256 38.424 223.256 40.472C223.256 42.52 223.688 44.344 224.552 45.944C225.448 47.544 226.648 48.792 228.152 49.688C229.688 50.584 231.416 51.032 233.336 51.032ZM290.439 27.752C292.775 27.752 294.887 28.296 296.775 29.384C298.663 30.44 300.135 31.944 301.191 33.896C302.279 35.816 302.823 38.008 302.823 40.472C302.823 42.936 302.279 45.128 301.191 47.048C300.135 48.968 298.663 50.472 296.775 51.56C294.887 52.648 292.775 53.192 290.439 53.192C288.199 53.192 286.167 52.664 284.343 51.608C282.551 50.52 281.159 49.016 280.167 47.096V53H277.863V17.384H280.263V33.656C281.255 31.8 282.647 30.36 284.439 29.336C286.231 28.28 288.231 27.752 290.439 27.752ZM290.295 51.032C292.215 51.032 293.943 50.584 295.479 49.688C297.015 48.792 298.215 47.544 299.079 45.944C299.975 44.344 300.423 42.52 300.423 40.472C300.423 38.424 299.975 36.6 299.079 35C298.215 33.4 297.015 32.152 295.479 31.256C293.943 30.36 292.215 29.912 290.295 29.912C288.375 29.912 286.647 30.36 285.111 31.256C283.607 32.152 282.407 33.4 281.511 35C280.647 36.6 280.215 38.424 280.215 40.472C280.215 42.52 280.647 44.344 281.511 45.944C282.407 47.544 283.607 48.792 285.111 49.688C286.647 50.584 288.375 51.032 290.295 51.032ZM334.463 27.944L321.599 56.408C320.639 58.616 319.519 60.184 318.239 61.112C316.991 62.04 315.503 62.504 313.775 62.504C312.623 62.504 311.535 62.312 310.511 61.928C309.519 61.544 308.671 60.984 307.967 60.248L309.167 58.424C310.447 59.736 311.999 60.392 313.823 60.392C315.039 60.392 316.079 60.056 316.943 59.384C317.807 58.712 318.607 57.56 319.343 55.928L320.687 52.904L309.407 27.944H311.951L321.983 50.36L332.015 27.944H334.463Z" fill="#6A6D6B"/>
</svg>
