<svg width="771" height="178" viewBox="0 0 771 178" fill="none" xmlns="http://www.w3.org/2000/svg">
<g clip-path="url(#clip0)">
<path d="M125.322 18.2L80.3938 119H73.0498L28.1218 18.2H36.1858L76.9378 109.496L117.69 18.2H125.322Z" fill="#5CDB94"/>
<path d="M240.885 83.144H176.229C176.421 89 177.909 94.232 180.693 98.84C183.477 103.352 187.221 106.856 191.925 109.352C196.725 111.848 202.101 113.096 208.053 113.096C212.949 113.096 217.461 112.232 221.589 110.504C225.813 108.68 229.317 106.04 232.101 102.584L236.277 107.336C233.013 111.272 228.885 114.296 223.893 116.408C218.997 118.52 213.669 119.576 207.909 119.576C200.421 119.576 193.749 117.944 187.893 114.68C182.037 111.416 177.429 106.904 174.069 101.144C170.805 95.384 169.173 88.808 169.173 81.416C169.173 74.12 170.709 67.592 173.781 61.832C176.949 55.976 181.269 51.416 186.741 48.152C192.213 44.888 198.357 43.256 205.173 43.256C211.989 43.256 218.085 44.888 223.461 48.152C228.933 51.32 233.205 55.784 236.277 61.544C239.445 67.304 241.029 73.832 241.029 81.128L240.885 83.144ZM205.173 49.592C199.893 49.592 195.141 50.792 190.917 53.192C186.693 55.496 183.285 58.808 180.693 63.128C178.197 67.352 176.757 72.152 176.373 77.528H233.973C233.685 72.152 232.245 67.352 229.653 63.128C227.061 58.904 223.653 55.592 219.429 53.192C215.205 50.792 210.453 49.592 205.173 49.592ZM362.807 83.144H298.151C298.343 89 299.831 94.232 302.615 98.84C305.399 103.352 309.143 106.856 313.847 109.352C318.647 111.848 324.023 113.096 329.975 113.096C334.871 113.096 339.383 112.232 343.511 110.504C347.735 108.68 351.239 106.04 354.023 102.584L358.199 107.336C354.935 111.272 350.807 114.296 345.815 116.408C340.919 118.52 335.591 119.576 329.831 119.576C322.343 119.576 315.671 117.944 309.815 114.68C303.959 111.416 299.351 106.904 295.991 101.144C292.727 95.384 291.095 88.808 291.095 81.416C291.095 74.12 292.631 67.592 295.703 61.832C298.871 55.976 303.191 51.416 308.663 48.152C314.135 44.888 320.279 43.256 327.095 43.256C333.911 43.256 340.007 44.888 345.383 48.152C350.855 51.32 355.127 55.784 358.199 61.544C361.367 67.304 362.951 73.832 362.951 81.128L362.807 83.144ZM327.095 49.592C321.815 49.592 317.063 50.792 312.839 53.192C308.615 55.496 305.207 58.808 302.615 63.128C300.119 67.352 298.679 72.152 298.295 77.528H355.895C355.607 72.152 354.167 67.352 351.575 63.128C348.983 58.904 345.575 55.592 341.351 53.192C337.127 50.792 332.375 49.592 327.095 49.592ZM428.137 60.248C430.441 54.776 434.041 50.6 438.937 47.72C443.833 44.744 449.785 43.256 456.793 43.256V50.312L455.065 50.168C446.713 50.168 440.185 52.808 435.481 58.088C430.777 63.272 428.425 70.52 428.425 79.832V119H421.225V43.832H428.137V60.248ZM553.302 114.248C551.478 115.976 549.174 117.32 546.39 118.28C543.702 119.144 540.87 119.576 537.894 119.576C531.366 119.576 526.326 117.8 522.774 114.248C519.222 110.6 517.446 105.56 517.446 99.128V50.024H503.622V43.832H517.446V27.416H524.646V43.832H548.55V50.024H524.646V98.408C524.646 103.304 525.798 107.048 528.102 109.64C530.502 112.136 534.006 113.384 538.614 113.384C543.318 113.384 547.206 111.992 550.278 109.208L553.302 114.248ZM609.381 12.152H616.581V119H609.381V12.152ZM743.264 43.832L704.672 129.224C701.792 135.848 698.432 140.552 694.592 143.336C690.848 146.12 686.384 147.512 681.2 147.512C677.744 147.512 674.48 146.936 671.408 145.784C668.432 144.632 665.888 142.952 663.776 140.744L667.376 135.272C671.216 139.208 675.872 141.176 681.344 141.176C684.992 141.176 688.112 140.168 690.704 138.152C693.296 136.136 695.696 132.68 697.904 127.784L701.936 118.712L668.096 43.832H675.728L705.824 111.08L735.92 43.832H743.264Z" fill="#1C4762"/>
<path d="M534.094 134.752C536.43 134.752 538.542 135.296 540.43 136.384C542.318 137.44 543.79 138.944 544.846 140.896C545.934 142.816 546.478 145.008 546.478 147.472C546.478 149.936 545.934 152.128 544.846 154.048C543.79 155.968 542.318 157.472 540.43 158.56C538.542 159.648 536.43 160.192 534.094 160.192C531.854 160.192 529.822 159.664 527.998 158.608C526.206 157.52 524.814 156.016 523.822 154.096V160H521.518V124.384H523.918V140.656C524.91 138.8 526.302 137.36 528.094 136.336C529.886 135.28 531.886 134.752 534.094 134.752ZM533.95 158.032C535.87 158.032 537.598 157.584 539.134 156.688C540.67 155.792 541.87 154.544 542.734 152.944C543.63 151.344 544.078 149.52 544.078 147.472C544.078 145.424 543.63 143.6 542.734 142C541.87 140.4 540.67 139.152 539.134 138.256C537.598 137.36 535.87 136.912 533.95 136.912C532.03 136.912 530.302 137.36 528.766 138.256C527.262 139.152 526.062 140.4 525.166 142C524.302 143.6 523.87 145.424 523.87 147.472C523.87 149.52 524.302 151.344 525.166 152.944C526.062 154.544 527.262 155.792 528.766 156.688C530.302 157.584 532.03 158.032 533.95 158.032ZM587.076 148.048H565.524C565.588 150 566.084 151.744 567.012 153.28C567.94 154.784 569.188 155.952 570.756 156.784C572.356 157.616 574.148 158.032 576.132 158.032C577.764 158.032 579.268 157.744 580.644 157.168C582.052 156.56 583.22 155.68 584.148 154.528L585.54 156.112C584.452 157.424 583.076 158.432 581.412 159.136C579.78 159.84 578.004 160.192 576.084 160.192C573.588 160.192 571.364 159.648 569.412 158.56C567.46 157.472 565.924 155.968 564.804 154.048C563.716 152.128 563.172 149.936 563.172 147.472C563.172 145.04 563.684 142.864 564.708 140.944C565.764 138.992 567.204 137.472 569.028 136.384C570.852 135.296 572.9 134.752 575.172 134.752C577.444 134.752 579.476 135.296 581.268 136.384C583.092 137.44 584.516 138.928 585.54 140.848C586.596 142.768 587.124 144.944 587.124 147.376L587.076 148.048ZM575.172 136.864C573.412 136.864 571.828 137.264 570.42 138.064C569.012 138.832 567.876 139.936 567.012 141.376C566.18 142.784 565.7 144.384 565.572 146.176H584.772C584.676 144.384 584.196 142.784 583.332 141.376C582.468 139.968 581.332 138.864 579.924 138.064C578.516 137.264 576.932 136.864 575.172 136.864ZM618.981 158.416C618.373 158.992 617.605 159.44 616.677 159.76C615.781 160.048 614.837 160.192 613.845 160.192C611.669 160.192 609.989 159.6 608.805 158.416C607.621 157.2 607.029 155.52 607.029 153.376V137.008H602.421V134.944H607.029V129.472H609.429V134.944H617.397V137.008H609.429V153.136C609.429 154.768 609.813 156.016 610.581 156.88C611.381 157.712 612.549 158.128 614.085 158.128C615.653 158.128 616.949 157.664 617.973 156.736L618.981 158.416ZM646.122 134.752C649.226 134.752 651.61 135.552 653.274 137.152C654.938 138.72 655.77 141.04 655.77 144.112V160H653.466V155.536C652.666 157.008 651.498 158.16 649.962 158.992C648.426 159.792 646.586 160.192 644.442 160.192C641.658 160.192 639.45 159.536 637.818 158.224C636.218 156.912 635.418 155.184 635.418 153.04C635.418 150.96 636.154 149.28 637.626 148C639.13 146.688 641.514 146.032 644.778 146.032H653.37V144.016C653.37 141.68 652.73 139.904 651.45 138.688C650.202 137.472 648.362 136.864 645.93 136.864C644.266 136.864 642.666 137.152 641.13 137.728C639.626 138.304 638.346 139.072 637.29 140.032L636.09 138.304C637.338 137.184 638.842 136.32 640.602 135.712C642.362 135.072 644.202 134.752 646.122 134.752ZM644.778 158.224C646.858 158.224 648.618 157.744 650.058 156.784C651.53 155.824 652.634 154.432 653.37 152.608V147.904H644.826C642.362 147.904 640.57 148.352 639.45 149.248C638.362 150.144 637.818 151.376 637.818 152.944C637.818 154.576 638.426 155.872 639.642 156.832C640.858 157.76 642.57 158.224 644.778 158.224Z" fill="#5CDB94"/>
</g>
<defs>
<clipPath id="clip0">
<rect width="771" height="178" fill="white"/>
</clipPath>
</defs>
</svg>
