<svg width="319" height="61" viewBox="0 0 319 61" fill="none" xmlns="http://www.w3.org/2000/svg">
<path d="M43.584 3.2L23.616 48H20.352L0.384 3.2H3.968L22.08 43.776L40.192 3.2H43.584Z" fill="#5CDB94"/>
<path d="M94.9455 32.064H66.2095C66.2948 34.6667 66.9562 36.992 68.1935 39.04C69.4308 41.0453 71.0948 42.6027 73.1855 43.712C75.3188 44.8213 77.7082 45.376 80.3535 45.376C82.5295 45.376 84.5348 44.992 86.3695 44.224C88.2468 43.4133 89.8042 42.24 91.0415 40.704L92.8975 42.816C91.4468 44.5653 89.6122 45.9093 87.3935 46.848C85.2175 47.7867 82.8495 48.256 80.2895 48.256C76.9615 48.256 73.9962 47.5307 71.3935 46.08C68.7908 44.6293 66.7428 42.624 65.2495 40.064C63.7988 37.504 63.0735 34.5813 63.0735 31.296C63.0735 28.0533 63.7562 25.152 65.1215 22.592C66.5295 19.9893 68.4495 17.9627 70.8815 16.512C73.3135 15.0613 76.0442 14.336 79.0735 14.336C82.1028 14.336 84.8122 15.0613 87.2015 16.512C89.6335 17.92 91.5322 19.904 92.8975 22.464C94.3055 25.024 95.0095 27.9253 95.0095 31.168L94.9455 32.064ZM79.0735 17.152C76.7268 17.152 74.6148 17.6853 72.7375 18.752C70.8602 19.776 69.3455 21.248 68.1935 23.168C67.0842 25.0453 66.4442 27.1787 66.2735 29.568H91.8735C91.7455 27.1787 91.1055 25.0453 89.9535 23.168C88.8015 21.2907 87.2868 19.8187 85.4095 18.752C83.5322 17.6853 81.4202 17.152 79.0735 17.152ZM149.133 32.064H120.397C120.482 34.6667 121.144 36.992 122.381 39.04C123.618 41.0453 125.282 42.6027 127.373 43.712C129.506 44.8213 131.896 45.376 134.541 45.376C136.717 45.376 138.722 44.992 140.557 44.224C142.434 43.4133 143.992 42.24 145.229 40.704L147.085 42.816C145.634 44.5653 143.8 45.9093 141.581 46.848C139.405 47.7867 137.037 48.256 134.477 48.256C131.149 48.256 128.184 47.5307 125.581 46.08C122.978 44.6293 120.93 42.624 119.437 40.064C117.986 37.504 117.261 34.5813 117.261 31.296C117.261 28.0533 117.944 25.152 119.309 22.592C120.717 19.9893 122.637 17.9627 125.069 16.512C127.501 15.0613 130.232 14.336 133.261 14.336C136.29 14.336 139 15.0613 141.389 16.512C143.821 17.92 145.72 19.904 147.085 22.464C148.493 25.024 149.197 27.9253 149.197 31.168L149.133 32.064ZM133.261 17.152C130.914 17.152 128.802 17.6853 126.925 18.752C125.048 19.776 123.533 21.248 122.381 23.168C121.272 25.0453 120.632 27.1787 120.461 29.568H146.061C145.933 27.1787 145.293 25.0453 144.141 23.168C142.989 21.2907 141.474 19.8187 139.597 18.752C137.72 17.6853 135.608 17.152 133.261 17.152ZM178.169 21.888C179.193 19.456 180.793 17.6 182.969 16.32C185.145 14.9973 187.79 14.336 190.905 14.336V17.472L190.137 17.408C186.425 17.408 183.523 18.5813 181.433 20.928C179.342 23.232 178.297 26.4533 178.297 30.592V48H175.097V14.592H178.169V21.888ZM233.798 45.888C232.987 46.656 231.963 47.2533 230.726 47.68C229.531 48.064 228.272 48.256 226.95 48.256C224.048 48.256 221.808 47.4667 220.23 45.888C218.651 44.2667 217.862 42.0267 217.862 39.168V17.344H211.718V14.592H217.862V7.296H221.062V14.592H231.686V17.344H221.062V38.848C221.062 41.024 221.574 42.688 222.598 43.84C223.664 44.9493 225.222 45.504 227.27 45.504C229.36 45.504 231.088 44.8853 232.454 43.648L233.798 45.888ZM258.722 0.511997H261.922V48H258.722V0.511997ZM318.225 14.592L301.073 52.544C299.793 55.488 298.3 57.5787 296.593 58.816C294.929 60.0533 292.945 60.672 290.641 60.672C289.105 60.672 287.654 60.416 286.289 59.904C284.966 59.392 283.836 58.6453 282.897 57.664L284.497 55.232C286.204 56.9813 288.273 57.856 290.705 57.856C292.326 57.856 293.713 57.408 294.865 56.512C296.017 55.616 297.084 54.08 298.065 51.904L299.857 47.872L284.817 14.592H288.209L301.585 44.48L314.961 14.592H318.225Z" fill="#1C4762"/>
</svg>
