<svg width="319" height="61" viewBox="0 0 319 61" fill="none" xmlns="http://www.w3.org/2000/svg">
<path d="M43.3653 3.2L23.3973 48H20.1333L0.16525 3.2H3.74925L21.8613 43.776L39.9733 3.2H43.3653Z" fill="#5CDB94"/>
<path d="M94.7268 32.064H65.9908C66.0761 34.6667 66.7374 36.992 67.9748 39.04C69.2121 41.0453 70.8761 42.6027 72.9668 43.712C75.1001 44.8213 77.4894 45.376 80.1348 45.376C82.3108 45.376 84.3161 44.992 86.1508 44.224C88.0281 43.4133 89.5854 42.24 90.8228 40.704L92.6788 42.816C91.2281 44.5653 89.3934 45.9093 87.1748 46.848C84.9988 47.7867 82.6308 48.256 80.0708 48.256C76.7428 48.256 73.7774 47.5307 71.1748 46.08C68.5721 44.6293 66.5241 42.624 65.0308 40.064C63.5801 37.504 62.8548 34.5813 62.8548 31.296C62.8548 28.0533 63.5374 25.152 64.9028 22.592C66.3108 19.9893 68.2308 17.9627 70.6628 16.512C73.0948 15.0613 75.8254 14.336 78.8548 14.336C81.8841 14.336 84.5934 15.0613 86.9828 16.512C89.4148 17.92 91.3134 19.904 92.6788 22.464C94.0868 25.024 94.7908 27.9253 94.7908 31.168L94.7268 32.064ZM78.8548 17.152C76.5081 17.152 74.3961 17.6853 72.5188 18.752C70.6414 19.776 69.1268 21.248 67.9748 23.168C66.8654 25.0453 66.2254 27.1787 66.0548 29.568H91.6548C91.5268 27.1787 90.8868 25.0453 89.7348 23.168C88.5828 21.2907 87.0681 19.8187 85.1908 18.752C83.3134 17.6853 81.2014 17.152 78.8548 17.152ZM148.914 32.064H120.178C120.264 34.6667 120.925 36.992 122.162 39.04C123.4 41.0453 125.064 42.6027 127.154 43.712C129.288 44.8213 131.677 45.376 134.322 45.376C136.498 45.376 138.504 44.992 140.338 44.224C142.216 43.4133 143.773 42.24 145.01 40.704L146.866 42.816C145.416 44.5653 143.581 45.9093 141.362 46.848C139.186 47.7867 136.818 48.256 134.258 48.256C130.93 48.256 127.965 47.5307 125.362 46.08C122.76 44.6293 120.712 42.624 119.218 40.064C117.768 37.504 117.042 34.5813 117.042 31.296C117.042 28.0533 117.725 25.152 119.09 22.592C120.498 19.9893 122.418 17.9627 124.85 16.512C127.282 15.0613 130.013 14.336 133.042 14.336C136.072 14.336 138.781 15.0613 141.17 16.512C143.602 17.92 145.501 19.904 146.866 22.464C148.274 25.024 148.978 27.9253 148.978 31.168L148.914 32.064ZM133.042 17.152C130.696 17.152 128.584 17.6853 126.706 18.752C124.829 19.776 123.314 21.248 122.162 23.168C121.053 25.0453 120.413 27.1787 120.242 29.568H145.842C145.714 27.1787 145.074 25.0453 143.922 23.168C142.77 21.2907 141.256 19.8187 139.378 18.752C137.501 17.6853 135.389 17.152 133.042 17.152ZM177.95 21.888C178.974 19.456 180.574 17.6 182.75 16.32C184.926 14.9973 187.571 14.336 190.686 14.336V17.472L189.918 17.408C186.206 17.408 183.304 18.5813 181.214 20.928C179.123 23.232 178.078 26.4533 178.078 30.592V48H174.878V14.592H177.95V21.888ZM233.579 45.888C232.768 46.656 231.744 47.2533 230.507 47.68C229.312 48.064 228.053 48.256 226.731 48.256C223.829 48.256 221.589 47.4667 220.011 45.888C218.432 44.2667 217.643 42.0267 217.643 39.168V17.344H211.499V14.592H217.643V7.296H220.843V14.592H231.467V17.344H220.843V38.848C220.843 41.024 221.355 42.688 222.379 43.84C223.445 44.9493 225.003 45.504 227.051 45.504C229.141 45.504 230.869 44.8853 232.235 43.648L233.579 45.888ZM258.503 0.511997H261.703V48H258.503V0.511997ZM318.006 14.592L300.854 52.544C299.574 55.488 298.081 57.5787 296.374 58.816C294.71 60.0533 292.726 60.672 290.422 60.672C288.886 60.672 287.436 60.416 286.07 59.904C284.748 59.392 283.617 58.6453 282.678 57.664L284.278 55.232C285.985 56.9813 288.054 57.856 290.486 57.856C292.108 57.856 293.494 57.408 294.646 56.512C295.798 55.616 296.865 54.08 297.846 51.904L299.638 47.872L284.598 14.592H287.99L301.366 44.48L314.742 14.592H318.006Z" fill="white"/>
</svg>
